<svg xmlns="http://www.w3.org/2000/svg" width="170" height="110"><g fill="#DB572E"><path d="M69.51 30.055c0 4.205-1.183 7.128-3.55 8.769-2.168 1.557-5.166 2.336-8.995 2.336h-8.663v-.626h2.017V20.289h-2.017v-.582h9.458c3.917 0 6.855.802 8.813 2.405 1.959 1.604 2.938 4.251 2.938 7.943zM56.289 40.534h1.165c2.059 0 3.533-.731 4.423-2.193.889-1.461 1.332-3.904 1.327-7.328v-1.754c0-4.593-.876-7.358-2.63-8.293a7.579 7.579 0 0 0-3.552-.677h-.733v20.245zM113.89 86.14a5.055 5.055 0 0 0 2.98-.908 3.131 3.131 0 0 0 1.304-2.75 3.218 3.218 0 0 0-1.403-2.812 13.155 13.155 0 0 0-3.978-1.704 27.457 27.457 0 0 1-3.758-1.253 9.97 9.97 0 0 1-2.205-1.415c-1.399-1.174-2.096-2.984-2.092-5.43a7.053 7.053 0 0 1 2.142-5.156c1.428-1.44 3.378-2.16 5.85-2.16 1.271.006 2.535.183 3.759.525.785.244 1.59.418 2.405.52.317 0 .6-.225.846-.676h.37l.225 6.802h-.539a20.917 20.917 0 0 0-3.389-4.704 5.362 5.362 0 0 0-3.846-1.773 4.854 4.854 0 0 0-3.22.965 3.168 3.168 0 0 0-1.145 2.562 2.757 2.757 0 0 0 1.365 2.462 12.42 12.42 0 0 0 3.357 1.396c1.328.357 2.193.627 2.612.74.42.112.934.325 1.554.557.53.194 1.038.444 1.516.745.442.293.86.62 1.252.977.418.367.766.807 1.028 1.297a8.625 8.625 0 0 1-1.366 9.69 8.205 8.205 0 0 1-5.982 2.211 22.253 22.253 0 0 1-4.384-.507c-1.654-.339-2.568-.501-2.744-.501-.32 0-.626.332-.914 1.008h-.47l-.345-8.024h.577a18.373 18.373 0 0 0 3.758 5.124 7.034 7.034 0 0 0 4.88 2.192z"></path><path d="M35.862 67.493h-1.177V4.8H90.85v1.177H35.862v61.516zM135.449 105.2H79.282v-1.178h54.99V41.13h1.177V105.2zM92.925 22.276a2.262 2.262 0 0 1-.927.902 3.033 3.033 0 0 1-1.435.32h-1.816v-5.112h1.816c.496-.01.988.097 1.435.314.392.197.715.51.927.895.218.412.326.874.313 1.34.011.467-.096.928-.313 1.341zm-1.172-.125a1.88 1.88 0 0 0 0-2.437 1.748 1.748 0 0 0-1.252-.438h-.733v3.307h.708c.466.03.925-.125 1.277-.432zM99.226 19.2v1.322h1.81v.782h-1.81v1.372h2.03v.82h-3.051v-5.11h3.05v.814h-2.03zM109.517 22.82a1.347 1.347 0 0 1-.576.526c-.291.14-.61.208-.933.2a2.506 2.506 0 0 1-.971-.181 1.66 1.66 0 0 1-.683-.533 1.56 1.56 0 0 1-.294-.814h1.083a.87.87 0 0 0 .25.52.789.789 0 0 0 .57.207.663.663 0 0 0 .49-.17.626.626 0 0 0 .168-.438.551.551 0 0 0-.137-.395.996.996 0 0 0-.345-.25 6.355 6.355 0 0 0-.582-.22 5.638 5.638 0 0 1-.783-.313 1.528 1.528 0 0 1-.514-.45 1.297 1.297 0 0 1-.213-.777 1.253 1.253 0 0 1 .47-1.04 2.317 2.317 0 0 1 2.55 0 1.46 1.46 0 0 1 .544 1.04h-1.096a.783.783 0 0 0-.232-.451.72.72 0 0 0-.513-.176.67.67 0 0 0-.458.15.506.506 0 0 0-.175.427.526.526 0 0 0 .138.375c.094.105.21.188.338.245.182.079.368.148.557.206.273.095.54.204.802.326.211.106.392.263.526.457.155.236.232.514.22.796.003.258-.066.512-.2.733zM115.687 18.386v5.11h-.99v-5.11h.99zM124.72 18.793c.411.303.693.75.788 1.253h-1.07a1.254 1.254 0 0 0-.483-.558 1.422 1.422 0 0 0-.777-.207 1.479 1.479 0 0 0-.783.207 1.347 1.347 0 0 0-.526.576c-.13.276-.195.578-.188.883a1.728 1.728 0 0 0 .433 1.253 1.535 1.535 0 0 0 1.17.451c.345.006.68-.109.947-.326.27-.234.452-.555.513-.908h-1.729v-.726h2.581v.983a2.336 2.336 0 0 1-.426.933c-.215.29-.496.524-.82.683a2.811 2.811 0 0 1-2.506-.075 2.273 2.273 0 0 1-.89-.915 2.8 2.8 0 0 1-.312-1.353 2.754 2.754 0 0 1 .313-1.346 2.33 2.33 0 0 1 .883-.927 2.63 2.63 0 0 1 1.328-.332 2.55 2.55 0 0 1 1.553.45zM134.898 23.497h-1.021l-2.268-3.477v3.477h-1.02v-5.111h1.02l2.287 3.501v-3.501h1.02l-.018 5.11zM38.023 87.9a1.328 1.328 0 0 1-.576.533c-.29.14-.61.208-.933.2a2.374 2.374 0 0 1-.971-.188 1.66 1.66 0 0 1-.683-.532 1.51 1.51 0 0 1-.294-.808h1.083a.82.82 0 0 0 .251.513.79.79 0 0 0 .57.207.663.663 0 0 0 .489-.17.589.589 0 0 0 .169-.438.57.57 0 0 0-.138-.394 1.083 1.083 0 0 0-.345-.25 7.498 7.498 0 0 0-.582-.214 5.566 5.566 0 0 1-.783-.32 1.36 1.36 0 0 1-.514-.45 1.253 1.253 0 0 1-.213-.77 1.252 1.252 0 0 1 .47-1.04 1.948 1.948 0 0 1 1.253-.382c.463-.025.92.115 1.29.394a1.471 1.471 0 0 1 .545 1.04h-1.084a.783.783 0 0 0-.231-.451.727.727 0 0 0-.514-.182.67.67 0 0 0-.457.15.532.532 0 0 0-.176.433.501.501 0 0 0 .138.37c.094.104.21.187.338.244.138.062.326.131.558.213.275.089.543.198.802.325.21.104.391.259.526.451.154.236.23.514.219.796 0 .255-.072.504-.207.72zM46.649 83.472v.808h-1.416v4.296h-1.021V84.28h-1.403v-.808h3.84zM52.392 83.472v2.994c-.024.322.07.643.263.902a.963.963 0 0 0 .765.3.952.952 0 0 0 .757-.3c.195-.26.288-.58.264-.902v-2.994h1.014v2.994c.013.414-.078.825-.263 1.196a1.673 1.673 0 0 1-.733.727c-.327.166-.69.25-1.058.244a2.01 2.01 0 0 1-1.472-.551 2.217 2.217 0 0 1-.551-1.616v-2.994h1.014zM64.725 87.355c-.21.386-.53.7-.92.902a3.031 3.031 0 0 1-1.435.32h-1.822v-5.105h1.822c.497-.015.99.093 1.435.313.389.197.71.507.92.89a2.968 2.968 0 0 1 0 2.68zm-1.165-.119a1.88 1.88 0 0 0 0-2.442 1.773 1.773 0 0 0-1.252-.433h-.714v3.308h.714c.457.023.906-.132 1.252-.433zM71.033 83.472v5.104h-1.02v-5.104h1.02zM79.852 83.754c.387.222.705.545.921.934.225.413.34.876.332 1.346.006.472-.108.938-.332 1.353a2.4 2.4 0 0 1-.92.934 2.669 2.669 0 0 1-2.6 0 2.399 2.399 0 0 1-.92-.934 2.71 2.71 0 0 1-.339-1.353c-.008-.47.109-.935.338-1.346.216-.39.535-.712.921-.934a2.712 2.712 0 0 1 2.6 0zm-2.085.815a1.353 1.353 0 0 0-.539.582c-.13.276-.195.578-.188.883-.006.307.058.612.188.89.12.241.308.443.539.582a1.64 1.64 0 0 0 1.572 0c.23-.137.416-.34.532-.582.135-.277.202-.582.194-.89a1.88 1.88 0 0 0-.194-.883 1.303 1.303 0 0 0-.532-.582 1.599 1.599 0 0 0-1.572 0zM101.293 52.678a.589.589 0 0 0-.445-.407 16.874 16.874 0 0 0-12.527 2.374A20.098 20.098 0 0 0 90.2 50.8c1.36-.914 4.742-3.382 6.777-6.458 1.253-1.879 1.623-3.501 1.103-4.88a.582.582 0 0 0-.683-.362 5.443 5.443 0 0 0-2.637 1.804c-2.33 2.587-3.827 5.718-5.243 8.769a.63.63 0 0 0-.163.125c.245-3.132-.263-6.427-1.49-8.77a1.621 1.621 0 0 0-1.084-.939 1.434 1.434 0 0 0-1.19.401c-1.04.92-1.153 2.362-1.127 3.658a81.61 81.61 0 0 0 1.384 11.901.583.583 0 0 0-.313.432 27.155 27.155 0 0 1-4.197 3.99c.43-.697.739-1.461.914-2.26.335-1.725.288-3.502-.137-5.206a10.023 10.023 0 0 0-1.955-4.491 1.253 1.253 0 0 0-2.336.22c-1.153 2.43-.952 5.217-.626 7.378.081.539.169 1.077.25 1.622.328 1.667.479 3.363.451 5.061a61.383 61.383 0 0 1-8.637 4.134.589.589 0 0 0 .219 1.134.625.625 0 0 0 .219-.038 57.386 57.386 0 0 0 10.548-5.311l1.203.538c3.514 1.604 7.153 3.258 11.049 3.859.118.02.237.03.357.031a1.115 1.115 0 0 0 .89-.376 1.178 1.178 0 0 0 0-1.371 7.961 7.961 0 0 0-4.642-3.702 19.087 19.087 0 0 0-5.756-.808h-.627a26.866 26.866 0 0 0 3.758-3.69h1.04c2.301-.03 4.592-.307 6.834-.826 2.33-.501 4.967-1.253 6.821-3.132a.59.59 0 0 0 .119-.558zm-22.424-3.426a1.13 1.13 0 0 0 .088-.194c.111.058.21.14.288.238a8.494 8.494 0 0 1 1.697 3.965c.386 1.541.435 3.148.144 4.71a5.637 5.637 0 0 1-2.048 3.32 34.593 34.593 0 0 0-.47-3.727 70.967 70.967 0 0 1-.244-1.603c-.282-1.992-.476-4.56.545-6.709zm9.865 13.555a6.808 6.808 0 0 1 3.972 3.132h-.044c-3.759-.577-7.298-2.199-10.743-3.759l-.175-.081c.525-.048 1.052-.06 1.579-.038 1.831-.03 3.656.221 5.411.746zm6.89-21.121a5.418 5.418 0 0 1 1.479-1.253c.1.89-.27 1.954-1.122 3.238a22.196 22.196 0 0 1-4.61 4.78 28.46 28.46 0 0 1 4.247-6.765h.006zm-9.27-.295a.588.588 0 0 1 .213-.131s.088.037.244.332c1.723 3.263 1.88 8.813.37 12.652l-.363.545a75.05 75.05 0 0 1-1.19-10.648c-.025-1.027.043-2.155.72-2.75h.006zm7.73 13.855a32.76 32.76 0 0 1-5.707.777 16.04 16.04 0 0 1 9.202-2.906c.6 0 1.2.036 1.797.106a14.681 14.681 0 0 1-5.299 2.023h.007z"></path></g></svg>