<svg xmlns="http://www.w3.org/2000/svg" width="170" height="110"><g fill="#DB572E"><path d="M69.918 45.817c-.12.2-.294.359-.503.46a1.721 1.721 0 0 1-.817.175 1.992 1.992 0 0 1-.842-.163 1.414 1.414 0 0 1-.597-.459 1.314 1.314 0 0 1-.257-.71h.949a.729.729 0 0 0 .213.452c.135.125.314.19.497.183a.573.573 0 0 0 .427-.151.509.509 0 0 0 .145-.384.478.478 0 0 0-.12-.339.785.785 0 0 0-.301-.22 4.437 4.437 0 0 0-.503-.188 4.676 4.676 0 0 1-.679-.277 1.218 1.218 0 0 1-.452-.39c-.133-.2-.2-.438-.189-.678a1.094 1.094 0 0 1 .415-.905 1.98 1.98 0 0 1 2.218 0 1.256 1.256 0 0 1 .478.905h-.962a.666.666 0 0 0-.2-.396.628.628 0 0 0-.447-.15.628.628 0 0 0-.396.125.47.47 0 0 0-.15.377.484.484 0 0 0 .112.327c.083.09.183.16.296.207.16.071.324.134.49.189.238.08.471.174.698.282a1.2 1.2 0 0 1 .458.396c.134.205.2.447.189.691.004.226-.055.448-.17.641zM78.439 41.953v.71h-1.257v3.77h-.886v-3.77H75.04v-.71h3.4zM87.18 41.953l-1.508 2.897v1.559h-.892V44.85l-1.515-2.897h1.019l.948 1.955.943-1.955h1.005zM93.22 45.73h1.501v.679H92.34v-4.456h.886l-.006 3.777zM100.804 42.663v1.157h1.578v.678h-1.578v1.2h1.766v.71h-2.658v-4.455h2.658v.71h-1.766zM38.34 55.634a2.425 2.425 0 0 0-1.143.534 1.954 1.954 0 0 0-.497 1.106c-.098.74-.14 1.485-.125 2.23v13.197a7.195 7.195 0 0 0-.817-.05c-.182 0-.49 0-.918.05L23.843 60.686v7.164c-.022.883.028 1.765.151 2.64.05.46.275.882.628 1.18a4.01 4.01 0 0 0 1.697.548v.496c-.679-.05-1.602-.075-2.777-.075-.88 0-1.565 0-2.062.075v-.496a2.4 2.4 0 0 0 1.138-.535c.28-.306.457-.693.502-1.106.095-.74.135-1.485.12-2.23V57.77a5.027 5.027 0 0 0-.132-1.363.885.885 0 0 0-.49-.572 3.59 3.59 0 0 0-1.138-.201v-.497c.497.05 1.182.076 2.062.076.88 0 1.652 0 2.28-.076l10.156 10.727v-5.863a16.112 16.112 0 0 0-.151-2.639 1.804 1.804 0 0 0-.66-1.181 4.04 4.04 0 0 0-1.697-.547v-.497c.68.05 1.603.076 2.778.076.88 0 1.565 0 2.061-.076l.032.497zM60.567 71.803c.195.222.462.37.754.415v.496c-1.187-.05-2.695-.075-4.512-.075-1.816 0-3.28 0-4.172.075v-.496c.456-.003.91-.083 1.338-.24a.666.666 0 0 0 .402-.628 3.385 3.385 0 0 0-.301-1.194l-1.458-4.097h-5.027l-.421 1.119a9.821 9.821 0 0 0-.817 3.223 1.546 1.546 0 0 0 .572 1.396 3.464 3.464 0 0 0 1.684.42v.497a82.424 82.424 0 0 0-3.25-.075c-.778 0-1.413 0-1.884.075v-.496a1.967 1.967 0 0 0 1.162-.773 8.295 8.295 0 0 0 1.119-2.13l5.51-14.178c.529 0 .969.05 1.314.05.346 0 .76 0 1.295-.05l6.001 15.49c.153.433.388.832.691 1.176zm-8.131-6.215-2.256-6.203-2.382 6.203h4.638zM81.23 60.052c-.008.597.017 1.195.075 1.79h-.572c-.55-2.165-1.25-3.73-2.105-4.694a3.73 3.73 0 0 0-2.784-1.439v14.196c-.03.514.043 1.029.213 1.514a1.132 1.132 0 0 0 .767.629c.584.13 1.181.184 1.778.163v.497a270.2 270.2 0 0 0-5.435-.076c-1.175 0-2.885 0-5.115.076v-.497a6.985 6.985 0 0 0 1.772-.163 1.137 1.137 0 0 0 .773-.629 4.028 4.028 0 0 0 .207-1.514V55.71a3.769 3.769 0 0 0-2.79 1.427c-.855.955-1.552 2.513-2.099 4.707h-.572c.058-.596.083-1.194.075-1.791 0-1.437-.056-3.075-.17-4.915 1.572.05 4.276.076 8.114.076 3.837 0 6.535-.025 8.093-.076a57.053 57.053 0 0 0-.226 4.915zM104.336 55.634a2.4 2.4 0 0 0-1.138.534 1.885 1.885 0 0 0-.496 1.106c-.098.74-.14 1.485-.126 2.23v5.983c0 2.382-.339 4.142-1.018 5.266a4.33 4.33 0 0 1-1.973 1.71 8.17 8.17 0 0 1-3.362.628c-2.004 0-3.557-.396-4.669-1.194a4.115 4.115 0 0 1-1.621-2.331 15.123 15.123 0 0 1-.415-3.972V57.77a5.399 5.399 0 0 0-.12-1.363.849.849 0 0 0-.483-.572 3.846 3.846 0 0 0-1.156-.201v-.497c.942.05 2.398.076 4.367.076 1.954 0 3.431 0 4.443-.076v.497c-.441.006-.879.074-1.301.201a.891.891 0 0 0-.56.572 4.403 4.403 0 0 0-.15 1.363v10.124c0 1.592.25 2.706.748 3.343a2.81 2.81 0 0 0 2.356.955c1.571 0 2.688-.559 3.35-1.677a9.427 9.427 0 0 0 .992-4.751V60a16.1 16.1 0 0 0-.15-2.639 1.772 1.772 0 0 0-.629-1.181 4.042 4.042 0 0 0-1.703-.547v-.497c.679.05 1.609.076 2.784.076.876 0 1.56-.025 2.055-.076l-.025.497zM128.612 71.721a4.233 4.233 0 0 1-1.634 1.043 6.738 6.738 0 0 1-2.086.296 4.868 4.868 0 0 1-2.66-.629 2.797 2.797 0 0 1-1.161-2.074l-.378-2.513a9.244 9.244 0 0 0-.678-2.627 1.395 1.395 0 0 0-1.307-.899h-1.113v5.713c-.018.458.026.917.132 1.363a.88.88 0 0 0 .484.572c.37.124.755.192 1.144.201v.497c-.96-.05-2.342-.076-4.148-.076-1.998 0-3.475 0-4.398.076v-.497a3.97 3.97 0 0 0 1.156-.2.83.83 0 0 0 .484-.573c.1-.447.142-.905.125-1.363V57.77a4.94 4.94 0 0 0-.138-1.364.863.863 0 0 0-.484-.572 3.635 3.635 0 0 0-1.143-.201v-.497c.942.05 2.367.076 4.273.076H119.078c2.514 0 4.387.356 5.619 1.068a3.517 3.517 0 0 1 1.854 3.249 4.203 4.203 0 0 1-1.395 3.18c-.924.88-2.514 1.414-4.664 1.615 1.33.02 2.638.346 3.82.955a3.324 3.324 0 0 1 1.59 2.294l.523 2.582c.057.443.2.87.42 1.257a.806.806 0 0 0 .698.352 1.028 1.028 0 0 0 .767-.327l.302.283zM118.079 55.81a.9.9 0 0 0-.39.628c-.074.442-.105.89-.094 1.339v6.102h.666c1.176 0 1.98-.359 2.407-1.075a5.93 5.93 0 0 0 .629-3.041 6.726 6.726 0 0 0-.56-3.08 1.885 1.885 0 0 0-1.822-1.043 1.62 1.62 0 0 0-.836.17zM148.52 72.714c-1.125-.05-3.023-.075-5.656-.075-3.877 0-6.768 0-8.691.075v-.496a4.01 4.01 0 0 0 1.156-.202.831.831 0 0 0 .484-.571c.1-.448.143-.906.126-1.364v-12.31a4.967 4.967 0 0 0-.138-1.364.88.88 0 0 0-.484-.572 3.668 3.668 0 0 0-1.144-.201v-.497c1.923.05 4.814.076 8.69.076 2.435 0 4.163-.025 5.185-.076a58.608 58.608 0 0 0-.176 4.173c-.007.596.018 1.192.076 1.785h-.566c-.301-1.885-.854-3.3-1.665-4.135a3.898 3.898 0 0 0-2.903-1.257h-.333a3.104 3.104 0 0 0-.981.113.666.666 0 0 0-.421.421 3.348 3.348 0 0 0-.113 1.03v6.36h.252a2.86 2.86 0 0 0 2.205-1.018 4.68 4.68 0 0 0 1.169-2.256h.572c-.05.691-.075 1.47-.075 2.332v1.187c0 .838.05 2.013.15 3.526h-.571a4.135 4.135 0 0 0-1.157-2.344 3.138 3.138 0 0 0-2.293-.93h-.252v6.453c-.016.348.022.695.113 1.031a.67.67 0 0 0 .42.421c.32.09.65.128.982.113h.823a3.766 3.766 0 0 0 2.727-1.401c.863-.939 1.475-2.432 1.835-4.48h.572c-.05.59-.075 1.357-.075 2.28a41.509 41.509 0 0 0 .157 4.173zM91.56 81.524H79.47v1.577h12.09v-1.577zM91.824 23.585c1.376-.283 4.833-1.131 7.434-2.891 1.634-1.112 2.451-2.269 2.514-3.55a.59.59 0 0 0-.497-.629 4.688 4.688 0 0 0-2.708.578c-2.646 1.257-4.807 3.205-6.913 5.122a14.233 14.233 0 0 0 1.546-7.17 1.444 1.444 0 0 0-.59-1.163 1.301 1.301 0 0 0-1.144-.075c-1.15.396-1.716 1.52-2.124 2.564a68.5 68.5 0 0 0-2.753 9.765.566.566 0 0 0-.364.232 22.562 22.562 0 0 1-4.116 1.64c.42-.355.79-.762 1.106-1.212a10.31 10.31 0 0 0 1.59-4.173 8.666 8.666 0 0 0-.088-4.21 1.3 1.3 0 0 0-1.125-1.024 1.257 1.257 0 0 0-.93.408c-1.71 1.552-2.463 3.827-2.922 5.656-.113.452-.22.905-.327 1.357a20.92 20.92 0 0 1-1.257 4.072 52.57 52.57 0 0 1-8.062.44.591.591 0 0 0 0 1.181h.942a49.58 49.58 0 0 0 7.541-.496c.51-.075 1.018-.163 1.527-.27l.73.779c2.249 2.4 4.58 4.889 7.465 6.63.221.143.477.226.741.238a.981.981 0 0 0 .44-.106 1.087 1.087 0 0 0 .497-1.157 6.856 6.856 0 0 0-2.476-4.474 16.255 16.255 0 0 0-4.286-2.514l-.283-.119a23.31 23.31 0 0 0 3.877-1.596 26.002 26.002 0 0 0 6.43 1.885c1.045.202 2.107.314 3.172.333a8.325 8.325 0 0 0 3.256-.628.59.59 0 0 0 .1-1.03 14.453 14.453 0 0 0-10.33-2.27c.86-.631 1.66-1.342 2.387-2.123zm7.227-5.405a4.75 4.75 0 0 1 1.395-.471 4.5 4.5 0 0 1-1.854 2.005 18.287 18.287 0 0 1-4.75 2.136 23.096 23.096 0 0 1 5.209-3.67zm-8.603-1.357c.301-.792.71-1.634 1.401-1.885.07 0 .12 0 .126-.038a.868.868 0 0 1 .05.27c.296 3.073-1.338 7.415-3.72 9.935l-.314.214a62.663 62.663 0 0 1 2.457-8.496zm-9.885 8.257c.107-.446.207-.892.32-1.332.422-1.646 1.094-3.708 2.577-5.027a.472.472 0 0 1 .057-.057.81.81 0 0 1 .075.176 7.17 7.17 0 0 1 .05 3.62 9.244 9.244 0 0 1-1.395 3.707 4.744 4.744 0 0 1-2.47 1.886c.327-1.006.56-1.999.786-2.973zm6.14 7.46a5.787 5.787 0 0 1 2.06 3.518c-2.632-1.62-4.832-3.94-6.956-6.208.302.107.629.239.911.37a15.083 15.083 0 0 1 3.985 2.32zm11.267-4.198a12.813 12.813 0 0 1-4.544-.17 28.828 28.828 0 0 1-4.398-1.125 13.543 13.543 0 0 1 8.942 1.295zM57.256 44.076H44.26v1.577h12.996v-1.577zM124.477 44.076H111.48v1.577h12.996v-1.577zM32.867 92.012c.337.192.616.472.805.81.196.363.296.77.289 1.182.007.41-.093.815-.29 1.175a2.092 2.092 0 0 1-.804.817 2.356 2.356 0 0 1-2.262 0 2.08 2.08 0 0 1-.798-.817 2.3 2.3 0 0 1-.296-1.175c-.008-.413.094-.82.296-1.181.186-.339.463-.619.798-.81a2.357 2.357 0 0 1 2.262 0zm-1.816.71a1.22 1.22 0 0 0-.465.51c-.118.24-.176.505-.17.772-.005.268.054.532.17.773.101.21.263.386.465.503.208.121.445.182.685.176.242.006.482-.055.691-.176.2-.118.36-.293.46-.503.115-.24.174-.505.169-.773a1.665 1.665 0 0 0-.17-.773c-.1-.21-.26-.387-.459-.509a1.312 1.312 0 0 0-.69-.176 1.295 1.295 0 0 0-.686.176zM41.621 96.24l-1.043-1.734h-.39v1.735h-.892v-4.456h1.697c.43-.031.856.106 1.187.384a1.433 1.433 0 0 1 .126 1.841c-.21.239-.497.399-.81.452l1.105 1.779h-.98zm-1.433-2.343h.73c.508 0 .766-.226.766-.679a.665.665 0 0 0-.189-.503.798.798 0 0 0-.578-.175h-.729v1.357zM51.26 92.143c.356.263.602.648.692 1.081h-.937a1.05 1.05 0 0 0-.42-.484 1.257 1.257 0 0 0-.673-.176 1.307 1.307 0 0 0-.685.176c-.199.12-.358.294-.459.503-.115.24-.171.506-.163.773a1.496 1.496 0 0 0 .377 1.087 1.332 1.332 0 0 0 1.024.39c.3.006.592-.094.823-.283.235-.202.391-.48.44-.786h-1.508v-.628h2.256v.86c-.063.295-.19.571-.37.811a1.886 1.886 0 0 1-.717.597 2.244 2.244 0 0 1-1.018.227 2.281 2.281 0 0 1-1.163-.29 1.967 1.967 0 0 1-.773-.798 2.652 2.652 0 0 1 0-2.356c.178-.335.445-.614.773-.804a2.305 2.305 0 0 1 1.157-.29c.478-.019.95.118 1.344.39zM60.07 95.343h-1.796l-.315.898h-.942l1.634-4.399h1.018l1.634 4.4h-.943l-.29-.9zm-.238-.673-.628-1.885-.629 1.885h1.257zM70.213 96.24h-.886l-1.992-3.028v3.029h-.892v-4.456h.892l1.992 3.054v-3.054h.886v4.456zM76.604 91.785v4.456h-.892v-4.456h.892zM85.471 92.175c.37.29.627.702.723 1.163h-.899a1.187 1.187 0 0 0-.452-.566 1.256 1.256 0 0 0-.736-.207 1.163 1.163 0 0 0-1.068.679c-.11.242-.164.506-.157.772-.006.263.047.523.157.76a1.163 1.163 0 0 0 1.068.679c.261.01.518-.063.736-.207.206-.137.364-.334.452-.565h.93a2.03 2.03 0 0 1-.722 1.168 2.2 2.2 0 0 1-1.383.428 2.155 2.155 0 0 1-1.125-.29 1.885 1.885 0 0 1-.754-.804 2.69 2.69 0 0 1 0-2.35c.166-.337.428-.617.754-.804.341-.2.73-.3 1.125-.29.486-.01.962.142 1.351.434zM100.704 94.325c.162.198.25.447.245.703a1.1 1.1 0 0 1-.377.887c-.31.238-.697.354-1.088.326H97.6v-4.455h1.885c.37-.024.736.08 1.037.295a1.019 1.019 0 0 1 .365.836c.01.245-.069.486-.22.679a1.024 1.024 0 0 1-.572.352c.241.05.457.183.61.377zm-2.244-.673h.805a.767.767 0 0 0 .509-.144.535.535 0 0 0 .17-.428.546.546 0 0 0-.17-.427.774.774 0 0 0-.522-.15h-.76l-.032 1.15zm1.389 1.71a.554.554 0 0 0 .188-.453.571.571 0 0 0-.188-.459.848.848 0 0 0-.547-.157h-.81v1.22h.848a.848.848 0 0 0 .509-.151zM107.126 92.495v1.15h1.577v.685h-1.577v1.194h1.766v.717h-2.652v-4.456h2.652v.71h-1.766zM116.93 95.343h-1.785l-.315.898h-.942l1.64-4.399h1.018l1.634 4.4h-.943l-.308-.9zm-.24-.673-.628-1.885-.66 1.885h1.288zM124.18 91.785V94.4a1.15 1.15 0 0 0 .234.786.98.98 0 0 0 1.326 0c.166-.227.246-.505.226-.786v-2.614h.886V94.4c.009.362-.071.72-.233 1.044-.14.269-.36.488-.628.628a2.001 2.001 0 0 1-.924.207 1.733 1.733 0 0 1-1.257-.477 1.896 1.896 0 0 1-.477-1.408V91.78l.848.006zM135.323 91.785v.71h-1.225v3.771h-.893v-3.77h-1.22v-.71h3.338zM144.077 91.785l-1.508 2.897v1.559h-.9v-1.559l-1.513-2.897h1.024l.949 1.948.942-1.948h1.006z"></path></g></svg>