<svg xmlns="http://www.w3.org/2000/svg" width="170" height="110"><g fill="#DB572E"><path d="m29.728 48.25.773-.472c.107-.572-.113-.855-.666-.855-.792 0-1.187.629-1.187 1.823a8.16 8.16 0 0 0 .194 1.659 4.203 4.203 0 0 1 2.1 3.607 4.13 4.13 0 0 1-1.522 3.412 6.397 6.397 0 0 1-4.116 1.213c-.75-.001-1.5-.075-2.237-.22-.81.515-1.219.905-1.219 1.163 0 .257.59.383 1.772.383h2.822c4.19 0 6.284 1.502 6.284 4.506a4.562 4.562 0 0 1-1.885 3.852c-1.257.947-3.224 1.422-5.901 1.426-4.55 0-6.825-.986-6.825-2.96 0-1.068.71-1.803 2.13-2.205l1.66.741a5.593 5.593 0 0 0-.22 1.52c0 1.585 1.177 2.376 3.531 2.376a5.806 5.806 0 0 0 3.318-.798 2.368 2.368 0 0 0 1.163-1.992 1.684 1.684 0 0 0-.742-1.57 6.567 6.567 0 0 0-2.809-.397H23.47c-1.495 0-2.563-.249-3.204-.748a2.243 2.243 0 0 1-.968-1.84 2.512 2.512 0 0 1 .691-1.823 12.975 12.975 0 0 1 2.457-1.81c-2.136-.603-3.205-2.002-3.205-4.198a4.167 4.167 0 0 1 1.496-3.343c.993-.838 2.484-1.257 4.474-1.257a6.284 6.284 0 0 1 3.067.692c-.105-.445-.16-.9-.164-1.358a2.752 2.752 0 0 1 .842-2.268 2.84 2.84 0 0 1 1.854-.692 2.439 2.439 0 0 1 1.647.54 1.847 1.847 0 0 1 .628 1.478 1.791 1.791 0 0 1-.503 1.395 1.716 1.716 0 0 1-1.2.458 1.74 1.74 0 0 1-1.156-.377 1.332 1.332 0 0 1-.497-1.062zm-5.863 5.165v1.496c-.056.85.053 1.704.32 2.513a1.03 1.03 0 0 0 .969.628.962.962 0 0 0 .936-.628 7.71 7.71 0 0 0 .295-2.664v-1.345a9.128 9.128 0 0 0-.276-2.828.961.961 0 0 0-.924-.679 1.05 1.05 0 0 0-.98.704 7.697 7.697 0 0 0-.34 2.803zM45.061 50.462c-.685 0-1.256.44-1.797 1.326-.533.96-.8 2.044-.773 3.142v7.415h1.96v.503h-8.62v-.503h1.52v-12.16h-1.52v-.496h6.66v2.652a3.708 3.708 0 0 1 1.383-2.168 3.77 3.77 0 0 1 2.319-.76 3.048 3.048 0 0 1 2.111.728 2.638 2.638 0 0 1 .817 2.074c.043.74-.18 1.471-.628 2.061a2.3 2.3 0 0 1-1.886.717 2.124 2.124 0 0 1-1.885-.83 2.56 2.56 0 0 1-.15-2.294h.992c.534-.936.358-1.407-.503-1.407zM54.054 61.277c-1.186-1.223-1.78-2.926-1.785-5.109 0-2.186.673-3.858 2.005-5.027a7.485 7.485 0 0 1 5.096-1.74c4.19 0 6.199 2.094 6.027 6.284h-7.792v1.08a9.424 9.424 0 0 0 .69 4.085 2.456 2.456 0 0 0 2.401 1.383c2.137 0 3.538-1.142 4.204-3.425l.497.082a5.756 5.756 0 0 1-1.885 3.098c-.914.733-2.282 1.101-4.104 1.106-2.38.016-4.164-.59-5.354-1.817zm3.576-6.12h2.846v-1.351a11.575 11.575 0 0 0-.264-3.054 1.024 1.024 0 0 0-1.05-.817 1.219 1.219 0 0 0-1.155.873 8.317 8.317 0 0 0-.377 2.998v1.35zM71.059 61.277c-1.186-1.224-1.779-2.927-1.779-5.11 0-2.182.669-3.858 2.005-5.027a7.466 7.466 0 0 1 5.096-1.74c4.19 0 6.197 2.095 6.02 6.284H74.61v1.08a9.426 9.426 0 0 0 .692 4.085 2.464 2.464 0 0 0 2.406 1.383c2.137 0 3.536-1.142 4.198-3.425l.497.082a5.718 5.718 0 0 1-1.886 3.098c-.913.733-2.28 1.102-4.103 1.106-2.371.017-4.156-.589-5.354-1.816zm3.582-6.121h2.846v-1.351a11.58 11.58 0 0 0-.263-3.054 1.038 1.038 0 0 0-1.05-.817 1.256 1.256 0 0 0-1.162.873 8.488 8.488 0 0 0-.371 2.998v1.351zM86.229 49.69h6.66v2.513c.254-.792.722-1.499 1.352-2.042a4.198 4.198 0 0 1 2.765-.773c2.853 0 4.28 1.538 4.28 4.613v8.345h1.551v.503h-7.823v-.503h1.137V53.36a6.217 6.217 0 0 0-.226-2.137.798.798 0 0 0-.798-.484 1.884 1.884 0 0 0-1.565 1.156 5.519 5.519 0 0 0-.672 2.822v7.629h1.187v.503H86.23v-.503h1.52v-12.16h-1.52v-.496zM107.878 61.277c-1.186-1.223-1.781-2.926-1.785-5.109 0-2.186.672-3.858 2.005-5.027a7.484 7.484 0 0 1 5.096-1.74c4.189 0 6.198 2.094 6.026 6.284h-7.792v1.08a9.438 9.438 0 0 0 .69 4.085 2.46 2.46 0 0 0 2.402 1.383c2.137 0 3.538-1.142 4.204-3.425l.496.082a5.753 5.753 0 0 1-1.885 3.098c-.91.733-2.277 1.101-4.103 1.106-2.38.016-4.165-.59-5.354-1.817zm3.575-6.12h2.847v-1.351a11.567 11.567 0 0 0-.264-3.054 1.025 1.025 0 0 0-1.05-.817 1.218 1.218 0 0 0-1.156.873 8.339 8.339 0 0 0-.377 2.998v1.35zM132.203 50.463c-.68 0-1.257.44-1.797 1.326a6.15 6.15 0 0 0-.773 3.142v7.415h1.96v.503h-8.615v-.503h1.496v-12.16h-1.521v-.496h6.655v2.652a3.77 3.77 0 0 1 1.382-2.168 3.772 3.772 0 0 1 2.319-.76 3.073 3.073 0 0 1 2.118.729 2.659 2.659 0 0 1 .817 2.073c.04.74-.183 1.47-.63 2.061a2.32 2.32 0 0 1-1.884.717 2.127 2.127 0 0 1-1.791-.817 2.56 2.56 0 0 1-.151-2.294h.999c.484-.949.264-1.42-.584-1.42zM138.865 50.187v-.496h8.012v.496h-1.49l3.01 9.175 3.205-9.175h-1.853v-.496h3.896v.496h-1.383l-5.165 14.893a9.04 9.04 0 0 1-2.043 3.633 3.943 3.943 0 0 1-2.765 1.037 4.036 4.036 0 0 1-2.57-.748 2.335 2.335 0 0 1-.936-1.885 2.415 2.415 0 0 1 .628-1.773 2.201 2.201 0 0 1 1.609-.628c1.529 0 2.292.628 2.287 1.885a3.56 3.56 0 0 1-.163.993h-.968a1.54 1.54 0 0 0-.056 1.05.712.712 0 0 0 .748.414 2.542 2.542 0 0 0 2.017-1.118 12.064 12.064 0 0 0 1.684-3.412l.628-1.71h-2.432l-4.77-12.63h-1.13zM85.097 33.52a.414.414 0 0 1-.213-.081.396.396 0 0 1-.1-.547 10.681 10.681 0 0 0 1.822-5.109c.081-.553.163-1.118.295-1.69.257-1.22.68-2.4 1.257-3.507-.629-.094-1.257-.207-1.885-.32-1.025-.182-2.087-.37-3.142-.465-1.823-.157-4.368 0-6.165 1.458a2.965 2.965 0 0 0-1.131 1.785.398.398 0 0 1-.446.339.397.397 0 0 1-.34-.446 3.77 3.77 0 0 1 1.414-2.288c2.005-1.659 4.763-1.803 6.737-1.634 1.08.095 2.155.29 3.198.472.73.132 1.47.264 2.219.364a6.911 6.911 0 0 1 1.52-1.609c.918-.678 2.338-1.219 3.595-.672a1.464 1.464 0 0 1 .967 1.257 1.55 1.55 0 0 1-.948 1.257 6.912 6.912 0 0 1-3.878.628c-.289 0-.572-.044-.86-.075a12.64 12.64 0 0 0-1.345 3.582c-.126.54-.201 1.062-.283 1.615a11.31 11.31 0 0 1-1.96 5.46.403.403 0 0 1-.328.227zm4.4-11.575h.401a6.19 6.19 0 0 0 3.45-.559c.164-.088.535-.32.535-.59 0-.27-.246-.428-.49-.541a2.96 2.96 0 0 0-2.803.584c-.405.32-.764.691-1.069 1.106h-.025z"></path><path d="M89.679 33.653a1.043 1.043 0 0 1-.629-.195 1.32 1.32 0 0 1-.496-1.069c.015-.687.18-1.363.484-1.98a6.03 6.03 0 0 0 .408-1.256v-.031a.695.695 0 0 0-.214.088 11.757 11.757 0 0 0-3.77 4.072.39.39 0 0 1-.534.144.402.402 0 0 1-.145-.54 12.567 12.567 0 0 1 4.022-4.355c.54-.32 1.068-.27 1.307.132a.912.912 0 0 1 .088.628 6.747 6.747 0 0 1-.459 1.44 4.135 4.135 0 0 0-.427 1.652.571.571 0 0 0 .163.452c.132.101.403.05.742-.125.34-.176.66-.384.98-.585l.164-.1c.308-.195.628-.396.917-.629a3.142 3.142 0 0 1 .679-2.394 1.771 1.771 0 0 1 1.885-.572c.207.04.39.16.509.333a.892.892 0 0 1 0 .905 4.695 4.695 0 0 1-1.42 1.496l-.189.144a17.19 17.19 0 0 1-.534.409 1.1 1.1 0 0 0 .396.49c.219.113.465.163.71.145a4.588 4.588 0 0 0 2.922-1 .39.39 0 0 1 .302-.075.395.395 0 0 1 .27.164s1.131 1.256 7.359 1.256h8.91a.395.395 0 1 1 0 .792h-8.91c-5.166.019-7.089-.848-7.717-1.307a5.568 5.568 0 0 1-3.142.974 2.21 2.21 0 0 1-1.106-.258 1.785 1.785 0 0 1-.629-.71c-.251.176-.502.34-.76.503l-.157.094c-.34.214-.685.434-1.037.629a2.03 2.03 0 0 1-.942.238zm4.706-4.519a1.036 1.036 0 0 0-.817.384 2.268 2.268 0 0 0-.502 1.313l.194-.15.189-.145a3.93 3.93 0 0 0 1.194-1.22.302.302 0 0 0 .044-.144 1.322 1.322 0 0 0-.302-.038zM67.678 33.653H60.89a.396.396 0 1 1 0-.792h6.787c7.252 0 9.049-1.464 9.068-1.476a.465.465 0 0 1 .314-.095.403.403 0 0 1 .27.17c1.15 1.665 2.206 1.206 2.25 1.188 1.1-.34 1.621-1.584 1.885-2.577.212-.887.378-1.785.497-2.69.132-.86.263-1.746.477-2.614.528-2.186 1.54-3.827 2.916-4.731a.389.389 0 1 1 .434.628c-1.527 1.012-2.25 2.878-2.59 4.26-.2.836-.333 1.71-.458 2.552-.126.842-.277 1.847-.51 2.765-.433 1.703-1.256 2.777-2.356 3.11 0 0-1.477.71-2.953-1.162-.836.49-3.293 1.464-9.244 1.464zM44.263 83.372l-.546 1.722-.93-.29 1.464-4.656 1.697.534c.46.107.861.389 1.118.786a1.497 1.497 0 0 1 .082 1.207 1.415 1.415 0 0 1-.767.923c-.437.169-.92.169-1.357 0l-.76-.226zm1.942-.993a.774.774 0 0 0 0-.597.9.9 0 0 0-.565-.377l-.666-.214-.453 1.433.666.208c.522.176.867.018 1.018-.453zM53.4 82.78l-.666 2.778c-.098.294-.085.614.038.898a1.056 1.056 0 0 0 1.414.34c.238-.195.397-.47.446-.773l.673-2.784.942.226-.672 2.759c-.082.387-.26.748-.516 1.05a1.652 1.652 0 0 1-.842.515 2.23 2.23 0 0 1-1.036 0 1.885 1.885 0 0 1-1.257-.842 2.075 2.075 0 0 1-.145-1.622l.673-2.777.948.232zM63.116 89.757l-.811-2.062-.421-.075-.32 1.885-.956-.163.817-4.807 1.829.307c.469.05.901.275 1.213.629a1.552 1.552 0 0 1-.201 2.01c-.272.223-.611.345-.962.346l.874 2.124-1.062-.194zm-1.119-2.797.792.132c.547.094.867-.1.949-.584a.733.733 0 0 0-.113-.578.886.886 0 0 0-.591-.302l-.786-.132-.251 1.464zM70.946 86.677l-.132 1.257 1.722.183-.082.741-1.716-.182-.138 1.307 1.923.201-.082.78-2.89-.309.509-4.85 2.89.3-.075.774-1.93-.201zM88.384 91.53h-.987l-2.205-3.3v3.318h-.937l-.031-4.877h.974l2.2 3.325v-3.343h.973l.013 4.876zM96.911 90.077l-1.948.15-.27 1.006-1.024.082 1.414-4.952 1.112-.082 2.155 4.67-1.024.08-.415-.954zm-.32-.717-.874-1.998-.559 2.111 1.433-.113zM106.2 85.026l.113.766-1.34.195.598 4.066-.967.138-.592-4.066-1.325.195-.114-.766 3.627-.528zM112.032 83.95l.628 2.796c.04.306.193.585.427.786a1.058 1.058 0 0 0 1.42-.302c.132-.281.154-.602.063-.899l-.597-2.796.943-.201.628 2.796c.099.386.099.79 0 1.175a1.603 1.603 0 0 1-.54.824c-.273.22-.597.37-.943.433a1.884 1.884 0 0 1-1.476-.22 2.062 2.062 0 0 1-.842-1.395l-.597-2.796.886-.201zM123.808 86.031l-1.622-1.514-.414.12.528 1.828-.937.27-1.351-4.694 1.79-.51a1.836 1.836 0 0 1 1.359.038 1.56 1.56 0 0 1 .69 1.886 1.504 1.504 0 0 1-.716.722l1.71 1.534-1.037.32zm-2.218-2.036.766-.226c.54-.15.75-.465.629-.943a.755.755 0 0 0-.346-.471.886.886 0 0 0-.666 0l-.767.22.384 1.42zM129.5 79.86l.428 1.194 1.628-.585.25.704-1.626.578.446 1.257 1.822-.628.264.735-2.74.98-1.646-4.593 2.74-.98.257.728-1.822.61zM94.385 73.318h-16.2v1.578h16.2v-1.578zM52.596 32.395a44.457 44.457 0 0 1-6.636-.703 17.297 17.297 0 0 1-.854-3.381c-.07-.383-.139-.76-.214-1.144-.314-1.54-.848-3.481-2.225-4.87a1.205 1.205 0 0 0-.83-.415 1.175 1.175 0 0 0-1.067.874 7.34 7.34 0 0 0-.264 3.557 8.798 8.798 0 0 0 1.162 3.588c.176.273.373.531.59.773a18 18 0 0 1-2.934-1.39.628.628 0 0 0-.276-.219 57.48 57.48 0 0 0-1.885-8.207c-.302-.911-.742-1.885-1.722-2.287a1.207 1.207 0 0 0-1.043 0 1.332 1.332 0 0 0-.591 1.011 11.75 11.75 0 0 0 .836 5.656 22.928 22.928 0 0 0-5.229-4.26 4.034 4.034 0 0 0-2.293-.629.59.59 0 0 0-.528.572c0 1.106.628 2.136 1.96 3.142a18.808 18.808 0 0 0 6.083 2.74c.5.607 1.048 1.173 1.64 1.69-2.901-.538-5.9 0-8.433 1.515a.584.584 0 0 0 .05 1.036 7.39 7.39 0 0 0 3.268.66 16.65 16.65 0 0 0 2.13-.157c1.859-.18 3.686-.6 5.436-1.25a18.429 18.429 0 0 0 2.897 1.395 13.946 13.946 0 0 0-3.701 1.923 5.844 5.844 0 0 0-2.294 3.688.999.999 0 0 0 .415 1.081c.138.085.297.131.459.132.222-.009.438-.074.628-.188 2.514-1.333 4.543-3.312 6.53-5.222l.628-.578c.364.088.729.176 1.093.25h.038c2.358.459 4.75.724 7.151.793a.59.59 0 0 0 0-1.182l.025.006zM29.29 23.183a4.035 4.035 0 0 1-1.37-1.54c.331.097.65.235.949.409a17.88 17.88 0 0 1 3.833 2.94 14.623 14.623 0 0 1-3.412-1.809zm12.568 0c1.118 1.163 1.577 2.866 1.854 4.223.075.377.144.748.213 1.125.138.76.277 1.54.484 2.3a3.865 3.865 0 0 1-1.753-1.552 7.541 7.541 0 0 1-.993-3.142 5.875 5.875 0 0 1 .207-2.948l-.012-.006zm-6.875-3.412v-.107c.528.214.823.905 1.037 1.558a50.42 50.42 0 0 1 1.634 6.913h-.038c-1.822-2.18-3.004-5.832-2.62-8.358l-.013-.006zm-1.829 10.683a11.115 11.115 0 0 1-3.475 0 11.274 11.274 0 0 1 6.844-.629 23.83 23.83 0 0 1-3.356.61l-.013.019zm3.702 6.686a4.82 4.82 0 0 1 1.79-2.576 12.457 12.457 0 0 1 3.394-1.754l.37-.132a28.567 28.567 0 0 1-5.542 4.443l-.012.019zM146.387 30.07a12.155 12.155 0 0 0-8.44-1.514 14.308 14.308 0 0 0 1.64-1.69 18.691 18.691 0 0 0 6.083-2.74c1.345-1.012 1.986-2.043 1.96-3.142a.592.592 0 0 0-.527-.572 4.045 4.045 0 0 0-2.287.628 22.78 22.78 0 0 0-5.23 4.23 11.727 11.727 0 0 0 .83-5.656 1.29 1.29 0 0 0-.59-1.018 1.195 1.195 0 0 0-1.037 0c-.98.396-1.42 1.376-1.722 2.287a57.81 57.81 0 0 0-1.885 8.207.63.63 0 0 0-.27.22c-.924.539-1.893.995-2.897 1.364.216-.242.41-.5.584-.773a8.714 8.714 0 0 0 1.163-3.588 7.241 7.241 0 0 0-.258-3.557 1.067 1.067 0 0 0-1.885-.459c-1.382 1.389-1.885 3.33-2.224 4.87-.076.384-.145.767-.214 1.15-.173 1.15-.46 2.28-.855 3.375a44.54 44.54 0 0 1-6.636.704.589.589 0 0 0-.59.59.59.59 0 0 0 .59.591 44.318 44.318 0 0 0 7.183-.767c.364-.075.723-.163 1.087-.251l.629.578c1.985 1.885 4.04 3.89 6.529 5.222.19.111.407.174.628.183a.844.844 0 0 0 .453-.126.993.993 0 0 0 .414-1.08 5.815 5.815 0 0 0-2.293-3.69 13.915 13.915 0 0 0-3.677-1.954 19.18 19.18 0 0 0 2.89-1.389 21.608 21.608 0 0 0 5.418 1.307c.708.098 1.422.15 2.137.157a7.406 7.406 0 0 0 3.267-.66.584.584 0 0 0 .334-.503.598.598 0 0 0-.283-.533h-.02zm-1.006-8.018c.297-.174.613-.311.943-.408a3.962 3.962 0 0 1-1.364 1.54c-1.052.75-2.2 1.36-3.412 1.809a17.88 17.88 0 0 1 3.833-2.94zm-7.19-.823c.215-.629.504-1.345 1.038-1.559v.107c.37 2.514-.792 6.184-2.658 8.364h-.038a51.08 51.08 0 0 1 1.659-6.912zm-7.885 7.296c.069-.377.132-.748.207-1.125.277-1.358.735-3.06 1.885-4.223a5.88 5.88 0 0 1 .189 2.966 7.69 7.69 0 0 1-.993 3.142 3.975 3.975 0 0 1-1.753 1.552c.188-.779.327-1.552.465-2.312zm7.076 8.596a28.55 28.55 0 0 1-5.555-4.461l.364.132c1.215.409 2.362 1 3.4 1.753a4.88 4.88 0 0 1 1.79 2.576zm3.7-6.686a23.653 23.653 0 0 1-3.367-.628 11.248 11.248 0 0 1 6.837.628c-1.15.18-2.32.18-3.47 0zM4.755 56.445a2.69 2.69 0 1 1 5.38-.013 2.69 2.69 0 0 1-5.38.013zM162.562 59.128a2.683 2.683 0 1 0 0-5.366 2.683 2.683 0 0 0 0 5.366z"></path></g></svg>