<svg xmlns="http://www.w3.org/2000/svg" width="170" height="110"><g fill="#DB572E"><path d="M54.285 35.363a.084.084 0 0 1-.084.04c-.075 0-.115-.09-.11-.214a1.089 1.089 0 0 0-.06-.452.417.417 0 0 0-.288-.199l-2.983-.74a3.757 3.757 0 0 0-.522-.105c-.085 0-.14 0-.17.054a.906.906 0 0 0-.129.329l-.04.164a1.04 1.04 0 0 0 0 .462.91.91 0 0 0 .204.403c.077.087.149.178.214.273a.298.298 0 0 1 .055.22c0 .069-.07.089-.154.069a.412.412 0 0 1-.174-.09 3.102 3.102 0 0 0-.428-.328 2.24 2.24 0 0 0-.423-.189c-.119-.05-.169-.124-.144-.229a.115.115 0 0 1 .07-.064l.08-.03.158-.08a.597.597 0 0 0 .14-.209c.044-.09.08-.185.104-.283l.681-2.735c.025-.1.038-.204.04-.308a.8.8 0 0 0-.025-.219c0-.04-.045-.1-.08-.179a.599.599 0 0 1-.054-.114.209.209 0 0 1 0-.11c0-.054.06-.07.144-.05l.15.05.158.095.214.114c.106.056.218.1.333.13l.14.034c.179.043.258.108.238.194a.125.125 0 0 1-.09.09 1.074 1.074 0 0 1-.248.04.656.656 0 0 0-.686.586l-.094.378a.343.343 0 0 0 0 .224c.045.073.113.13.193.159.161.066.328.118.498.154l2.929.726a.394.394 0 0 0 .333-.04c.12-.096.217-.219.283-.358a.736.736 0 0 1 .09-.119.1.1 0 0 1 .1 0 .084.084 0 0 1 .069.06.194.194 0 0 1 0 .119c-.043.18-.098.368-.164.567-.075.258-.12.437-.145.527a8.74 8.74 0 0 0-.114.527c-.05.254-.074.393-.12.572a.223.223 0 0 1-.089.084zM56.29 28.874a.085.085 0 0 1-.085 0c-.075-.04-.095-.11-.06-.214a.746.746 0 0 0 .035-.388.457.457 0 0 0-.239-.239l-2.983-1.67a.557.557 0 0 0-.343-.095.736.736 0 0 0-.314.224c-.074.084-.149.104-.219.064a.089.089 0 0 1-.05-.079.204.204 0 0 1 .026-.104c.094-.16.189-.314.288-.463a8.723 8.723 0 0 0 .487-.87c.115-.234.214-.408.274-.497.06-.09.094-.1.164-.065a.104.104 0 0 1 .06.08.243.243 0 0 1 0 .129.875.875 0 0 0-.03.437.497.497 0 0 0 .238.25l1.174.66c.06.035.114 0 .15-.054l.969-1.72a.095.095 0 0 0 0-.075s-.025-.04-.06-.06l-1.173-.661a.497.497 0 0 0-.334-.08.796.796 0 0 0-.358.249.338.338 0 0 1-.109.084.12.12 0 0 1-.1 0c-.069-.033-.079-.093-.03-.179.055-.1.155-.263.294-.497.14-.234.229-.373.274-.453.044-.08.119-.218.218-.412.1-.194.155-.319.244-.498a.164.164 0 0 1 .08-.074.095.095 0 0 1 .09 0c.069.04.089.11.059.214a.691.691 0 0 0-.025.392c.052.11.142.196.254.244l2.953 1.661c.098.07.219.102.338.09a.721.721 0 0 0 .309-.23c.07-.084.144-.104.214-.059a.08.08 0 0 1 .044.075c.01.032.01.067 0 .1a8.874 8.874 0 0 1-.273.437c-.1.149-.214.353-.264.437l-.238.458a7.024 7.024 0 0 1-.269.522c-.045.074-.1.1-.164.06a.11.11 0 0 1-.065-.08.308.308 0 0 1 0-.13.935.935 0 0 0 .035-.432.418.418 0 0 0-.224-.244l-1.218-.686c-.075-.04-.124-.035-.154 0l-.995 1.74c-.034.06 0 .11.05.15l1.223.686a.39.39 0 0 0 .329.055.995.995 0 0 0 .358-.254.293.293 0 0 1 .104-.074.104.104 0 0 1 .104 0c.065.034.075.094.03.169-.09.159-.189.323-.303.497a6.652 6.652 0 0 0-.274.457c-.044.085-.159.299-.233.458-.075.159-.19.368-.239.457a.174.174 0 0 1-.045.1zM61.073 21.456a.1.1 0 0 1-.09-.025.15.15 0 0 1-.035-.09.245.245 0 0 1 .035-.134.925.925 0 0 0 .14-.383.425.425 0 0 0-.16-.298l-2.456-2.362a.497.497 0 0 0-.313-.17.686.686 0 0 0-.373.155c-.1.065-.18.07-.234 0a.09.09 0 0 1-.025-.09.25.25 0 0 1 .055-.109c.134-.134.273-.268.418-.398.144-.129.318-.308.387-.383a46.2 46.2 0 0 0 1.11-1.183c.092-.094.177-.196.253-.303l.11-.155a.26.26 0 0 1 .109-.06.13.13 0 0 1 .124 0c.075.06.194.145.348.254.152.104.298.215.438.334a.208.208 0 0 1 .054.094.084.084 0 0 1 0 .075.144.144 0 0 1-.184 0l-.189-.07-.223-.085a.693.693 0 0 0-.164 0 .74.74 0 0 0-.542.23l-.388.402a.498.498 0 0 0-.135.268.299.299 0 0 0 .09.254l1.02.995a.165.165 0 0 0 .205.048.165.165 0 0 0 .058-.048l.452-.473a.335.335 0 0 0 .11-.268 1.32 1.32 0 0 0-.13-.358c-.05-.09-.05-.154 0-.21a.1.1 0 0 1 .08 0c.04.01.075.033.1.065.169.19.308.339.417.443.11.104.304.283.453.408l.05.035c.064.06.079.114.04.154a.145.145 0 0 1-.11.035.284.284 0 0 1-.144-.045 1.146 1.146 0 0 0-.363-.13.278.278 0 0 0-.239.085l-.497.497a.16.16 0 0 0 0 .254l1.024.994a.428.428 0 0 0 .293.15.423.423 0 0 0 .274-.155l.447-.462a.89.89 0 0 0 .274-.527 1.727 1.727 0 0 0-.134-.721.164.164 0 0 1 .034-.164h.07a.24.24 0 0 1 .085.054c.074.078.14.163.199.254.063.106.142.245.238.418.027.058.06.115.095.169.01.03.01.064 0 .094a.195.195 0 0 1-.05.095l-.418.418-1.298 1.317c-.116.12-.23.249-.343.388-.159.18-.273.308-.348.383a.164.164 0 0 1-.104.04zM71.381 13.28a2.357 2.357 0 0 1-2.049-1.442 2.59 2.59 0 0 1 .333-2.61 2.948 2.948 0 0 1 1.209-.92c.242-.1.491-.177.746-.234.242-.063.49-.103.74-.12a.204.204 0 0 1 .21.105c.162.247.309.504.437.77a.202.202 0 0 1 0 .12.118.118 0 0 1-.07.07.189.189 0 0 1-.134 0 .367.367 0 0 1-.114-.08 1.989 1.989 0 0 0-.557-.383 1.288 1.288 0 0 0-.457-.084 1.601 1.601 0 0 0-1.273.75 1.78 1.78 0 0 0-.234.916 2.6 2.6 0 0 0 .224.994c.197.537.542 1.007.994 1.358a1.243 1.243 0 0 0 1.258.114.712.712 0 0 0 .234-.16c.06-.067.116-.14.164-.218a.443.443 0 0 0 .035-.229.8.8 0 0 0-.075-.288 8.486 8.486 0 0 0-.229-.567.258.258 0 0 0-.258-.174 1.95 1.95 0 0 0-.497.05.308.308 0 0 1-.135 0 .13.13 0 0 1-.094-.07.109.109 0 0 1 0-.094.233.233 0 0 1 .084-.075 7.58 7.58 0 0 1 .552-.214l.498-.209a7.68 7.68 0 0 0 .407-.194l.433-.203c.03-.01.064-.01.095 0a.095.095 0 0 1 .064.064c.035.07 0 .14-.074.204a.627.627 0 0 0-.204.229.448.448 0 0 0 0 .258c.04.186.1.366.179.537l.094.22c0 .034.065.064.15.099a.248.248 0 0 1 .129.114.17.17 0 0 1 0 .11.13.13 0 0 1-.075.089.999.999 0 0 0-.159.164 5.033 5.033 0 0 1-.542.537 3.238 3.238 0 0 1-.76.453 2.845 2.845 0 0 1-1.279.243zM81.68 10.556a1.89 1.89 0 0 1-.637-.428 6.6 6.6 0 0 1-.582-.611 9.846 9.846 0 0 1-.557-.731.468.468 0 0 0-.234-.2.497.497 0 0 0-.263-.04c-.055 0-.075.06-.06.16l.204 1.417a.419.419 0 0 0 .17.313c.144.073.304.11.467.11a.239.239 0 0 1 .129.03.125.125 0 0 1 .055.094c0 .075-.03.12-.125.13-.189.03-.393.05-.611.07l-.542.059-.523.094a9.38 9.38 0 0 1-.552.1.199.199 0 0 1-.109 0 .084.084 0 0 1-.065-.07c0-.084.03-.144.13-.179a.83.83 0 0 0 .373-.219.428.428 0 0 0 .054-.343l-.497-3.326a.642.642 0 0 0-.14-.364.587.587 0 0 0-.382-.104c-.116 0-.18-.045-.194-.134a.103.103 0 0 1 .035-.085.224.224 0 0 1 .114-.05c.17-.024.358-.04.567-.05h.184l.254-.024c.094 0 .223-.045.393-.09.204-.052.412-.093.621-.124.462-.095.94-.06 1.383.105a.994.994 0 0 1 .591.825 1.024 1.024 0 0 1-.169.776 1.69 1.69 0 0 1-.616.497c-.03 0-.03.05 0 .09.303.338.576.631.825.87.229.231.479.44.746.626.144.11.316.18.497.2.198.013.397.003.592-.03.075 0 .114.03.13.119a.358.358 0 0 1-.195.373 1.492 1.492 0 0 1-.631.203 1.705 1.705 0 0 1-.83-.06zm-1.492-2.63c.124-.225.165-.486.114-.737-.095-.686-.418-.994-.96-.91a.239.239 0 0 0-.219.17c-.032.182-.032.369 0 .551 0 .15.065.498.145 1.05a.28.28 0 0 0 .1.199.343.343 0 0 0 .223.034.776.776 0 0 0 .572-.368l.025.01zM86.408 10.372a.09.09 0 0 1-.034-.08.139.139 0 0 1 .05-.084.239.239 0 0 1 .129-.055c.136-.017.268-.06.387-.13a.439.439 0 0 0 .135-.308l.348-3.386a.497.497 0 0 0-.055-.358.771.771 0 0 0-.353-.199c-.11-.035-.164-.094-.154-.174a.084.084 0 0 1 .055-.07.179.179 0 0 1 .119-.024c.189 0 .383.05.572.084l.542.07c.611.064 1.148.114 1.61.144.133.014.266.014.399 0h.189c.041.005.08.02.114.045a.13.13 0 0 1 .055.114v.433c.01.182.01.364 0 .547a.2.2 0 0 1-.04.104.11.11 0 0 1-.07.03c-.064 0-.109-.05-.129-.134-.02-.085-.03-.1-.06-.194l-.074-.23a.725.725 0 0 0-.577-.428l-.557-.058a.497.497 0 0 0-.293.06.299.299 0 0 0-.145.228l-.144 1.407c0 .12.04.184.164.2l.657.064a.324.324 0 0 0 .278-.08c.083-.096.15-.205.2-.323.039-.09.094-.13.163-.124a.094.094 0 0 1 .065.054.183.183 0 0 1 0 .12c-.045.243-.08.447-.095.601a9.52 9.52 0 0 0-.04.602v.06c0 .09-.04.134-.094.13a.144.144 0 0 1-.094-.066.324.324 0 0 1-.06-.139.994.994 0 0 0-.114-.368.273.273 0 0 0-.214-.134l-.696-.075a.164.164 0 0 0-.204.155l-.145 1.417a.413.413 0 0 0 .065.318c.077.077.18.121.289.124l.641.065c.2.032.405-.005.582-.104.202-.148.372-.336.497-.552a.16.16 0 0 1 .15-.075c.024 0 .04 0 .049.045a.233.233 0 0 1 0 .104c-.014.107-.04.213-.08.313-.04.12-.099.264-.179.443-.03.058-.057.117-.08.179a.13.13 0 0 1-.069.065.194.194 0 0 1-.104 0l-.587-.07-1.835-.214c-.164 0-.338-.025-.497-.03a5.171 5.171 0 0 1-.497-.04.144.144 0 0 1-.135-.02zM93.48 11.48a.09.09 0 0 1 0-.09.12.12 0 0 1 .07-.07.244.244 0 0 1 .138-.024.994.994 0 0 0 .403-.035.426.426 0 0 0 .204-.273l1.109-3.218a.497.497 0 0 0 .025-.358.676.676 0 0 0-.299-.273c-.099-.065-.134-.13-.109-.209a.11.11 0 0 1 .07-.06.224.224 0 0 1 .124 0c.179.06.358.13.537.21l.497.193c.577.2 1.09.368 1.532.497.126.045.256.08.388.105l.184.035a.258.258 0 0 1 .1.07.139.139 0 0 1 .029.124c0 .094-.05.233-.085.422-.03.181-.07.36-.119.537a.14.14 0 0 1-.065.09.084.084 0 0 1-.074 0 .149.149 0 0 1-.095-.16v-.442A.627.627 0 0 0 98 8.397a.74.74 0 0 0-.433-.398l-.532-.184a.497.497 0 0 0-.298 0 .268.268 0 0 0-.19.184l-.462 1.338a.164.164 0 0 0 .12.233l.621.214a.308.308 0 0 0 .283 0c.105-.074.197-.165.274-.268.06-.08.12-.11.189-.085a.085.085 0 0 1 .045.065.174.174 0 0 1 0 .12c-.1.228-.174.417-.229.561a7 7 0 0 0-.174.582v.06c-.03.084-.07.119-.12.1a.139.139 0 0 1-.079-.08.374.374 0 0 1-.025-.155 1.07 1.07 0 0 0-.03-.383.268.268 0 0 0-.179-.179l-.656-.228a.159.159 0 0 0-.234.104l-.462 1.343a.417.417 0 0 0 0 .328.412.412 0 0 0 .253.184l.607.209a.88.88 0 0 0 .592.03c.228-.097.432-.243.596-.428a.16.16 0 0 1 .165-.035.05.05 0 0 1 .04.055.205.205 0 0 1 0 .104c-.037.1-.085.196-.145.284a7.24 7.24 0 0 1-.278.393l-.12.159a.12.12 0 0 1-.08.044.234.234 0 0 1-.104 0l-.557-.198-1.74-.627c-.16-.05-.323-.1-.497-.144l-.498-.154a.174.174 0 0 1-.184-.065zM103.917 16.638a1.76 1.76 0 0 1-.134-.567c-.11-.662-.22-1.358-.329-2.099l-.338-2.093c0-.08 0-.124-.03-.13-.03-.004-.07 0-.129.095-.06.095-.239.348-.403.612-.164.263-.288.452-.363.567l-.656.994a.497.497 0 0 0-.09.398c.042.162.13.31.254.423.1.104.13.184.09.243a.1.1 0 0 1-.095.035.284.284 0 0 1-.124-.05c-.13-.084-.259-.179-.398-.278-.14-.1-.199-.154-.274-.204a6.974 6.974 0 0 0-.373-.229l-.223-.134a.294.294 0 0 1-.085-.09.105.105 0 0 1 0-.099.13.13 0 0 1 .09-.045c.055.003.11.012.164.025a.641.641 0 0 0 .656-.298c.239-.289.497-.637.836-1.06.338-.422.631-.855.93-1.307a.716.716 0 0 0 .154-.537 1.369 1.369 0 0 0-.254-.537c-.094-.115-.12-.2-.085-.254.035-.055.125-.064.23 0l.496.338.712.498a.19.19 0 0 1 .084.154c.04.293.12.87.234 1.74.1.736.209 1.552.338 2.437 0 .083.015.132.045.149.03 0 .07 0 .11-.06l.59-.87c.3-.452.563-.855.782-1.213a.373.373 0 0 0 .05-.328 1.12 1.12 0 0 0-.25-.373c-.094-.1-.124-.18-.079-.24.045-.059.045-.034.09-.034a.263.263 0 0 1 .124.05l.602.408.288.184.388.243c.04.024.073.058.094.1a.09.09 0 0 1 0 .1c-.044.059-.124.064-.248 0a.796.796 0 0 0-.393-.085.413.413 0 0 0-.274.194c-.124.188-.283.417-.497.696l-.418.586c-.343.498-.621.86-.825 1.169a5.973 5.973 0 0 0-.348.632l-.13.233c-.124.19-.248.244-.362.164a.762.762 0 0 1-.224-.253zM107.209 19.447a.089.089 0 0 1 .03-.085.135.135 0 0 1 .094-.03c.047.002.093.02.13.05.111.08.238.136.372.164a.423.423 0 0 0 .309-.139l2.54-2.267c.1-.074.17-.182.195-.304a.696.696 0 0 0-.125-.383c-.06-.099-.06-.179 0-.233a.11.11 0 0 1 .09 0 .18.18 0 0 1 .104.07c.13.139.249.288.368.442.12.154.284.343.353.418.408.457.776.855 1.094 1.193.088.1.183.192.284.279.05.038.099.08.144.124a.255.255 0 0 1 .055.11.134.134 0 0 1-.035.124 6.14 6.14 0 0 0-.279.328 4.97 4.97 0 0 1-.368.407.209.209 0 0 1-.1.05.1.1 0 0 1-.074-.03.154.154 0 0 1 0-.184c0-.034.045-.094.09-.184.044-.09.074-.159.094-.213a.562.562 0 0 0 .04-.165.746.746 0 0 0-.184-.556l-.373-.418a.498.498 0 0 0-.259-.15.274.274 0 0 0-.258.07l-1.054.94a.158.158 0 0 0-.067.13.158.158 0 0 0 .067.129l.437.497a.324.324 0 0 0 .259.13 1.37 1.37 0 0 0 .368-.105c.09-.04.159-.035.204 0a.085.085 0 0 1 0 .08.184.184 0 0 1-.075.094 8.37 8.37 0 0 0-.472.383c-.115.104-.299.278-.438.417l-.04.05c-.064.06-.119.065-.154 0a.146.146 0 0 1-.03-.11.374.374 0 0 1 .055-.143.993.993 0 0 0 .16-.349.274.274 0 0 0-.065-.243l-.468-.522a.164.164 0 0 0-.253 0l-1.06.95a.388.388 0 0 0-.164.278c.004.11.05.213.13.288l.427.498a.89.89 0 0 0 .497.313c.247.026.496 0 .731-.08a.154.154 0 0 1 .16.05v.07a.304.304 0 0 1-.065.08c-.082.07-.172.13-.269.178-.109.06-.253.125-.432.204l-.18.08a.103.103 0 0 1-.094 0 .208.208 0 0 1-.09-.055l-.387-.448-1.213-1.397a6.262 6.262 0 0 0-.363-.368l-.353-.373a.199.199 0 0 1-.04-.134zM113.494 28.327c.012-.258.078-.51.194-.74a7.65 7.65 0 0 1 .383-.757c.134-.229.303-.497.497-.766a.453.453 0 0 0 .11-.283.497.497 0 0 0-.05-.259c-.025-.05-.085-.054-.17 0l-1.272.662a.42.42 0 0 0-.239.263c-.019.16 0 .322.055.473a.259.259 0 0 1 0 .134.124.124 0 0 1-.07.085c-.063.036-.117.011-.164-.075a8.545 8.545 0 0 1-.263-.557c-.09-.204-.194-.408-.239-.497-.045-.09-.13-.239-.259-.463a5.464 5.464 0 0 1-.278-.497.169.169 0 0 1-.025-.11.101.101 0 0 1 .045-.074.164.164 0 0 1 .214.07.85.85 0 0 0 .328.278.444.444 0 0 0 .343-.065l2.983-1.55a.652.652 0 0 0 .299-.25.625.625 0 0 0 0-.397c-.035-.11 0-.19.06-.224a.095.095 0 0 1 .089 0 .23.23 0 0 1 .085.094c.087.161.165.327.233.498 0 .034.045.09.08.169l.104.233c.065.117.137.23.214.338.14.22.249.398.328.547.24.404.363.868.353 1.338a.994.994 0 0 1-.582.83 1.032 1.032 0 0 1-.785.1 1.696 1.696 0 0 1-.686-.413c-.03-.025-.06 0-.085.035-.224.398-.408.751-.552 1.064-.14.295-.255.601-.343.915a.964.964 0 0 0-.025.527c.056.19.13.373.224.547.035.07 0 .125-.07.164a.368.368 0 0 1-.417-.054 1.666 1.666 0 0 1-.403-.532 1.751 1.751 0 0 1-.244-.801zm1.99-2.302a1.07 1.07 0 0 0 .735-.135c.612-.318.796-.72.542-1.208a.248.248 0 0 0-.234-.15 1.556 1.556 0 0 0-.497.195 20.2 20.2 0 0 0-.94.497.263.263 0 0 0-.154.16.334.334 0 0 0 .04.218.772.772 0 0 0 .497.423h.01zM115.314 33.246a.08.08 0 0 1 .07-.08c.035-.005.14.04.204.18a.647.647 0 0 0 .288.337.652.652 0 0 0 .408 0l.994-.243c.132-.032.258-.084.373-.155.11-.076.213-.16.309-.253l1.218-1.288c.1-.1.188-.213.263-.333a.63.63 0 0 0 .105-.358c.02-.038.044-.075.07-.11a.114.114 0 0 1 .084-.06.08.08 0 0 1 .085.026.208.208 0 0 1 .054.104c.05.199.09.393.12.587 0 .064.03.154.054.278.025.125.045.229.07.323.035.148.079.294.13.438 0 .045.039.114.069.209.03.094.05.179.064.248a.282.282 0 0 1 0 .145.093.093 0 0 1-.06.08.11.11 0 0 1-.109-.04.582.582 0 0 1-.094-.135.81.81 0 0 0-.174-.263.193.193 0 0 0-.189-.04.553.553 0 0 0-.239.14l-1.104 1.063c-.08.06-.109.115-.1.164.01.05.066.07.165.1.418.124.88.238 1.377.343a.707.707 0 0 0 .319 0 .24.24 0 0 0 .174-.17.592.592 0 0 0 0-.298.5.5 0 0 1 .025-.164.124.124 0 0 1 .084-.099.084.084 0 0 1 .08.045.388.388 0 0 1 .064.144c0 .094.05.224.08.388s.05.278.07.363c.02.084.04.149.06.209.02.06.034.104.054.149.055.149.094.273.12.368a.382.382 0 0 1 0 .164.1.1 0 0 1-.075.084.084.084 0 0 1-.095-.03 2.081 2.081 0 0 1-.114-.159 1.065 1.065 0 0 0-.647-.497l-.567-.184a25.497 25.497 0 0 0-1.079-.348 1.563 1.563 0 0 0-.378-.07 1.14 1.14 0 0 0-.377.04l-1.07.259a.586.586 0 0 0-.358.199.826.826 0 0 0-.094.442c.005.058.005.116 0 .174a.084.084 0 0 1-.075.07.099.099 0 0 1-.1-.03.317.317 0 0 1-.064-.13 12.672 12.672 0 0 1-.11-.571c0-.075-.024-.16-.039-.244l-.06-.278a6.04 6.04 0 0 0-.159-.497 4.62 4.62 0 0 1-.159-.537.293.293 0 0 1-.015-.2zM49.999 77.75a.08.08 0 0 1 .055-.07c.08-.024.144 0 .198.1a.816.816 0 0 0 .284.323.448.448 0 0 0 .348 0l3.173-1.084a.592.592 0 0 0 .323-.204.622.622 0 0 0 .05-.398c0-.114 0-.189.089-.213a.089.089 0 0 1 .09 0c.033.024.057.06.07.1.059.173.113.342.153.496.04.154.11.373.14.458.03.084.084.219.164.393.094.18.176.369.243.562.189.474.223.996.1 1.491a1.253 1.253 0 0 1-.826.846c-.29.1-.6.133-.905.094a1.462 1.462 0 0 1-.79-.373 1.99 1.99 0 0 1-.542-.87.687.687 0 0 1-.045-.293.16.16 0 0 1 .1-.145.085.085 0 0 1 .094 0c.029.016.051.04.064.07.012.046.02.092.025.14.007.055.019.11.035.163a.527.527 0 0 0 .497.338c.32.02.638-.03.935-.149.826-.278 1.144-.69.96-1.228-.095-.268-.259-.363-.497-.278l-3.322 1.158a.431.431 0 0 0-.284.22c-.04.162-.04.333 0 .496a.383.383 0 0 1 0 .135.149.149 0 0 1-.084.07c-.07.024-.124 0-.154-.1-.06-.18-.12-.373-.174-.587-.055-.214-.135-.433-.164-.522-.03-.09-.095-.254-.19-.497-.094-.244-.144-.353-.198-.498a.17.17 0 0 1-.015-.144zM54.176 86.383a1.99 1.99 0 0 1 .92-1.253l1.785-1.174a.741.741 0 0 0 .263-.293.497.497 0 0 0 .025-.358c-.044-.135-.034-.224.025-.264a.09.09 0 0 1 .1 0c.04.025.074.06.1.1.094.144.178.288.258.432.08.144.194.323.243.403l.294.418c.139.194.238.328.288.407.05.08.08.19 0 .234a.1.1 0 0 1-.104 0 1.131 1.131 0 0 1-.135-.084 1.04 1.04 0 0 0-.139-.09.383.383 0 0 0-.273-.064.811.811 0 0 0-.358.149l-1.641 1.079c-.348.195-.61.512-.736.89a1.124 1.124 0 0 0 .164.935 1.248 1.248 0 0 0 .9.626 1.93 1.93 0 0 0 1.213-.403l.79-.497c.19-.124.324-.214.404-.273.192-.12.36-.273.497-.453a.602.602 0 0 0 .09-.422c0-.03 0-.075-.03-.13a.579.579 0 0 1 .007-.183.094.094 0 0 1 .027-.036c.06-.04.13 0 .214.13l.234.373c.03.056.08.136.15.238.049.075.108.164.188.264.073.09.141.185.204.283.075.105.075.18 0 .224-.075.045-.134 0-.244-.084a.572.572 0 0 0-.378-.17.924.924 0 0 0-.427.145c-.537.331-1.104.69-1.7 1.074a2.05 2.05 0 0 1-1.045.363 1.915 1.915 0 0 1-.995-.204 2.014 2.014 0 0 1-.775-.701 2.163 2.163 0 0 1-.403-1.631zM61.933 96.02a1.863 1.863 0 0 1-.09-.762 8.218 8.218 0 0 1 .283-1.736.467.467 0 0 0 .001-.307.497.497 0 0 0-.144-.224c-.04-.035-.095 0-.16.06l-.944 1.074a.428.428 0 0 0-.13.333c.04.157.117.302.224.423.03.034.05.075.06.119a.15.15 0 0 1-.035.104c-.05.055-.114.05-.184 0-.07-.05-.288-.268-.447-.422l-.398-.373c-.07-.065-.209-.174-.408-.338-.199-.165-.303-.24-.437-.354a.218.218 0 0 1-.06-.094.084.084 0 0 1 0-.085c.056-.066.131-.066.224 0a.8.8 0 0 0 .403.14.443.443 0 0 0 .298-.18l2.223-2.525a.656.656 0 0 0 .184-.339.592.592 0 0 0-.17-.363c-.069-.089-.079-.164-.024-.228a.089.089 0 0 1 .084-.03.174.174 0 0 1 .115.055c.143.124.28.257.407.397l.135.13c.06.064.119.12.184.179.064.06.174.139.313.238.214.155.383.284.497.393.37.29.652.677.81 1.12a.995.995 0 0 1-.243.994.995.995 0 0 1-.696.373 1.587 1.587 0 0 1-.79-.135c-.036 0-.055 0-.065.065-.06.447-.105.845-.13 1.188-.028.331-.028.664 0 .995.011.178.07.35.17.497.119.157.256.3.407.428.055.05.055.11 0 .179a.363.363 0 0 1-.413.094 1.57 1.57 0 0 1-.566-.348 1.73 1.73 0 0 1-.488-.736zm.995-2.86a1.06 1.06 0 0 0 .636-.388c.458-.497.497-.96.07-1.323a.243.243 0 0 0-.274-.054c-.16.093-.3.219-.412.368-.105.11-.339.373-.702.785a.259.259 0 0 0-.089.21.313.313 0 0 0 .12.188.766.766 0 0 0 .676.214h-.025zM66.821 99.492a.096.096 0 0 1 0-.09.129.129 0 0 1 .08-.06.214.214 0 0 1 .139 0 .997.997 0 0 0 .408 0c.084 0 .164-.104.233-.238l1.547-3.034a.497.497 0 0 0 .075-.353.72.72 0 0 0-.254-.313c-.09-.074-.12-.149-.085-.219a.104.104 0 0 1 .08-.05.184.184 0 0 1 .12.025c.17.086.336.181.497.284.228.124.387.214.497.258.547.284 1.03.498 1.452.717.117.062.238.115.363.159l.179.06c.037.02.067.048.09.084a.134.134 0 0 1 0 .13c-.03.089-.08.223-.14.407-.053.17-.118.336-.194.497a.17.17 0 0 1-.074.08.09.09 0 0 1-.08 0 .16.16 0 0 1-.07-.174v-.438a.531.531 0 0 0 0-.164.762.762 0 0 0-.373-.453l-.497-.253a.442.442 0 0 0-.293-.05.273.273 0 0 0-.214.16l-.646 1.257a.163.163 0 0 0 .02.21c.018.018.04.031.064.04l.587.297a.333.333 0 0 0 .288.025c.113-.06.215-.137.304-.229.07-.07.134-.089.199-.06a.1.1 0 0 1 .04.07.193.193 0 0 1-.036.12c-.129.214-.233.388-.303.527-.07.14-.179.368-.253.552v.055c-.045.08-.09.109-.135.084a.154.154 0 0 1-.07-.094.403.403 0 0 1 0-.155 1.2 1.2 0 0 0 0-.382.293.293 0 0 0-.153-.204l-.622-.314a.16.16 0 0 0-.244.065l-.646 1.268a.428.428 0 0 0-.055.323c.044.1.124.178.224.22l.572.292a.89.89 0 0 0 .582.11c.238-.065.46-.18.651-.338a.154.154 0 0 1 .17 0 .05.05 0 0 1 .029.06.264.264 0 0 1-.025.099 1.496 1.496 0 0 1-.189.263 4.672 4.672 0 0 1-.328.348l-.14.14a.105.105 0 0 1-.089.034.223.223 0 0 1-.1 0l-.521-.278-1.636-.86a7.022 7.022 0 0 0-.473-.214 6.162 6.162 0 0 1-.467-.224.164.164 0 0 1-.085-.08zM84.499 104.378a1.787 1.787 0 0 1-.398-.417c-.428-.498-.875-1.07-1.338-1.651l-1.347-1.646c-.045-.065-.075-.095-.09-.095s-.054.045-.064.144c0 .18-.03.423-.04.731-.01.309 0 .538-.03.677-.025.567-.045.97-.06 1.203a.498.498 0 0 0 .12.388c.119.118.269.201.432.239.14.04.204.094.2.164a.09.09 0 0 1-.06.08.295.295 0 0 1-.135 0l-.497-.045c-.14 0-.254-.03-.343-.035h-.696a.283.283 0 0 1-.12-.04.08.08 0 0 1-.054-.075.1.1 0 0 1 .054-.084l.15-.065a.626.626 0 0 0 .417-.587c.065-.368.13-.81.194-1.332.065-.522.115-1.06.15-1.601a.756.756 0 0 0-.14-.542 1.445 1.445 0 0 0-.497-.339c-.134-.05-.199-.104-.199-.174 0-.07.075-.119.204-.109l.582.05.865.08a.19.19 0 0 1 .154.089l1.074 1.387c.454.587.96 1.233 1.517 1.94.044.07.08.104.11.104.029 0 .064-.035.069-.11l.07-1.044c.034-.542.06-1.024.069-1.442a.373.373 0 0 0-.124-.308 1.095 1.095 0 0 0-.398-.199c-.134-.04-.199-.094-.194-.169.005-.075 0-.055.06-.07a.293.293 0 0 1 .134-.025l.726.055h.8c.046.003.09.016.13.04a.1.1 0 0 1 .05.084c0 .075-.075.12-.204.14a.82.82 0 0 0-.388.124.439.439 0 0 0-.135.308c0 .224-.034.498-.07.84-.034.344-.049.573-.064.717-.064.582-.104 1.059-.129 1.427-.016.24-.016.48 0 .721v.268c0 .224-.095.334-.234.324a.746.746 0 0 1-.283-.12zM89.825 104.04a.123.123 0 0 1 .024-.109.264.264 0 0 1 .12-.084.92.92 0 0 0 .497-.622c.229-1.11.431-2.27.607-3.48.024-.175.04-.324.044-.438.005-.115 0-.184 0-.194.174-.085.329-.17.468-.254.125-.085.23-.197.308-.328a.099.099 0 0 1 .055-.035.06.06 0 0 1 .065.03.996.996 0 0 1 .114.184c.537.994 1.243 2.208 2.108 3.714a.784.784 0 0 0 .716.383c.05.001.1.013.144.035a.115.115 0 0 1 .065.085.085.085 0 0 1-.025.09.17.17 0 0 1-.1.049l-.556.1c-.229.034-.443.07-.637.109l-.532.13-.547.138c-.039.01-.08.01-.119 0a.096.096 0 0 1-.065-.07c0-.069.035-.134.145-.188.127-.047.244-.116.348-.204a.238.238 0 0 0 .074-.234.614.614 0 0 0-.035-.1l-.243-.497-.184-.368a.154.154 0 0 0-.06-.074.15.15 0 0 0-.094 0l-1.298.268a.101.101 0 0 0-.075.045.203.203 0 0 0 0 .105c-.045.427-.074.716-.084.87a.378.378 0 0 0 .05.275.289.289 0 0 0 .104.088c.127.048.262.071.398.07.124 0 .194.04.208.114.015.074-.034.114-.144.14l-.398.074-.407.07-.229.059-.184.05c-.134.04-.274.08-.423.109-.149.03-.209-.025-.223-.104zm2.486-2.625c.07 0 .104-.04.1-.075l-.036-.07-.83-1.556c-.03-.05-.05-.074-.065-.07a.311.311 0 0 0-.034.09l-.234 1.78a.12.12 0 0 0 0 .06c0 .045.055.055.144.04l.955-.199zM99.606 101.32a.075.075 0 0 1-.08-.044c-.035-.07 0-.144.095-.219.125-.087.23-.201.308-.333a.403.403 0 0 0-.03-.348l-1.328-2.8a3.534 3.534 0 0 0-.248-.467c-.055-.065-.105-.1-.154-.095a.822.822 0 0 0-.334.11l-.149.07a.966.966 0 0 0-.358.293.93.93 0 0 0-.184.413 1.785 1.785 0 0 1-.08.338.284.284 0 0 1-.129.184c-.064.03-.114 0-.154-.08a.373.373 0 0 1-.04-.184c.017-.18.017-.362 0-.542a2.145 2.145 0 0 0-.119-.447c-.04-.123-.01-.208.09-.254h.09l.074.04a.88.88 0 0 0 .159.074.523.523 0 0 0 .249-.025c.1-.02.196-.054.288-.099l2.541-1.208c.095-.045.186-.1.268-.164a.741.741 0 0 0 .155-.16l.09-.174a.49.49 0 0 1 .054-.114.164.164 0 0 1 .08-.075c.05-.024.089 0 .129.08.04.08.03.08.054.15l.03.183c0 .03 0 .11.05.239.021.117.058.23.11.338l.059.13c.08.168.08.268 0 .303a.135.135 0 0 1-.13 0 .996.996 0 0 1-.188-.17.825.825 0 0 0-.403-.253.815.815 0 0 0-.497.094l-.348.17a.279.279 0 0 0-.174.392c.045.172.109.339.189.498l1.297 2.725a.408.408 0 0 0 .24.233c.152.032.31.032.462 0a.498.498 0 0 1 .144 0 .104.104 0 0 1 .074.154.18.18 0 0 1-.084.075c-.17.08-.353.16-.547.234a5.46 5.46 0 0 0-.497.224c-.085.044-.254.124-.498.243-.243.12-.353.194-.497.269a.233.233 0 0 1-.13 0zM107.15 96.357a1.99 1.99 0 0 1-1.358-.77l-1.388-1.627a.682.682 0 0 0-.323-.224.498.498 0 0 0-.353 0c-.134.06-.224.065-.269 0a.09.09 0 0 1 0-.094.297.297 0 0 1 .085-.115c.13-.109.264-.213.398-.308l.368-.293.388-.324.373-.338c.104-.084.179-.1.228-.044a.11.11 0 0 1 0 .104.686.686 0 0 1-.064.144l-.075.144a.418.418 0 0 0-.025.284.78.78 0 0 0 .19.338l1.272 1.492c.239.328.595.55.995.621a1.13 1.13 0 0 0 .91-.278 1.243 1.243 0 0 0 .497-.97 1.935 1.935 0 0 0-.547-1.153l-.607-.721a8.789 8.789 0 0 0-.318-.368 2.054 2.054 0 0 0-.497-.458.637.637 0 0 0-.433-.035.57.57 0 0 0-.13.045.61.61 0 0 1-.128.04.084.084 0 0 1-.085-.03c-.045-.05 0-.13.104-.224l.339-.283a3.052 3.052 0 0 0 .457-.398l.254-.234c.1-.084.174-.1.218-.04.045.06.025.135-.05.25a.567.567 0 0 0-.119.397c.028.15.095.291.194.408.388.497.81.994 1.273 1.556.253.28.424.624.498.995.065.345.038.702-.08 1.034a2.084 2.084 0 0 1-.602.855 2.147 2.147 0 0 1-1.59.622zM115.767 87.463a1.831 1.831 0 0 1-.741.184 8.162 8.162 0 0 1-.846 0 8.578 8.578 0 0 1-.915-.085.468.468 0 0 0-.303.04.497.497 0 0 0-.209.169c-.03.045 0 .094.08.149l1.183.806a.408.408 0 0 0 .348.09c.15-.06.285-.154.393-.274a.27.27 0 0 1 .11-.075.118.118 0 0 1 .104.025c.065.04.065.1 0 .179-.11.159-.229.323-.363.497-.134.174-.269.363-.323.443-.055.08-.15.228-.289.447-.139.22-.194.328-.293.497a.228.228 0 0 1-.085.07.108.108 0 0 1-.089 0 .16.16 0 0 1-.04-.219.864.864 0 0 0 .09-.417.453.453 0 0 0-.214-.279l-2.78-1.89a.656.656 0 0 0-.363-.144.621.621 0 0 0-.333.214c-.085.08-.16.1-.229.05a.083.083 0 0 1-.04-.08.214.214 0 0 1 .04-.119 6.46 6.46 0 0 1 .343-.453l.115-.149c.054-.064.104-.134.154-.204.073-.11.14-.224.199-.343.1-.188.209-.37.328-.547.235-.403.58-.73.994-.944a.994.994 0 0 1 .995.119 1.03 1.03 0 0 1 .458.646c.05.267.037.541-.04.8 0 .036 0 .056.07.056h1.198c.326-.018.65-.061.97-.13a.994.994 0 0 0 .497-.233 2.62 2.62 0 0 0 .378-.453c.04-.065.1-.07.174 0a.369.369 0 0 1 .149.398 1.59 1.59 0 0 1-.279.602 1.716 1.716 0 0 1-.596.557zm-2.984-.657a1.069 1.069 0 0 0-.462-.582c-.572-.388-.995-.358-1.323.095a.248.248 0 0 0 0 .278c.114.148.256.271.418.363.119.09.407.289.865.602a.284.284 0 0 0 .219.06.293.293 0 0 0 .169-.14.781.781 0 0 0 .134-.676h-.02zM118.62 82.185a.099.099 0 0 1-.089 0 .154.154 0 0 1-.07-.07.245.245 0 0 1 0-.139.92.92 0 0 0-.029-.402.417.417 0 0 0-.269-.21l-3.202-1.158a.497.497 0 0 0-.358-.03.721.721 0 0 0-.278.294c-.06.1-.13.14-.204.11a.093.093 0 0 1-.06-.07.184.184 0 0 1 0-.125c.065-.179.134-.353.214-.532.08-.179.164-.413.204-.497.209-.577.383-1.084.527-1.527.048-.124.084-.252.11-.383.01-.062.023-.123.039-.184a.273.273 0 0 1 .075-.099.133.133 0 0 1 .124-.03c.09.025.234.055.423.09.189.034.442.1.532.129a.26.26 0 0 1 .09.065.095.095 0 0 1 0 .08c0 .059-.075.089-.16.089H115.796a.497.497 0 0 0-.159.04.762.762 0 0 0-.397.427l-.194.532a.458.458 0 0 0 0 .294.284.284 0 0 0 .184.198l1.327.498a.16.16 0 0 0 .205-.045.158.158 0 0 0 .029-.07l.224-.616a.324.324 0 0 0 0-.289 1.184 1.184 0 0 0-.264-.273.17.17 0 0 1-.084-.19.084.084 0 0 1 .07-.049.18.18 0 0 1 .119 0c.223.105.412.184.557.234.19.071.384.132.581.184h.055c.085.03.12.074.1.124a.118.118 0 0 1-.085.075.289.289 0 0 1-.15.025.995.995 0 0 0-.382 0 .269.269 0 0 0-.184.174l-.239.656a.163.163 0 0 0-.005.14.164.164 0 0 0 .105.094l1.337.497a.344.344 0 0 0 .498-.234l.218-.606a.92.92 0 0 0 .04-.592 1.886 1.886 0 0 0-.418-.602.164.164 0 0 1-.04-.164.06.06 0 0 1 .06-.04.179.179 0 0 1 .1 0c.1.038.195.088.283.15.11.07.234.164.388.283l.16.124a.11.11 0 0 1 .044.08.233.233 0 0 1 0 .104c-.07.194-.14.378-.209.557-.373.995-.587 1.557-.651 1.73a4.42 4.42 0 0 0-.154.498 4.855 4.855 0 0 1-.165.497.17.17 0 0 1-.08.154zM51.75 50.148H50.5v11.233h1.248V50.148zM119.123 50.148h-1.248v11.233h1.248V50.148zM72.744 65.155a1.493 1.493 0 0 0-1.1-.552 3.297 3.297 0 0 0-.994.12l-.094.03a.499.499 0 0 0-.204.03 2.239 2.239 0 0 0-1.388 1.83 1.87 1.87 0 0 0 .26 1.173c.161.24.373.444.62.596.382.236.82.361 1.269.363.241.002.482-.036.71-.114a2.02 2.02 0 0 0 1.338-1.552c.054-.451 0-.91-.154-1.337a1.875 1.875 0 0 0-.263-.587zm-.498 1.77a1.094 1.094 0 0 1-.72.82 1.428 1.428 0 0 1-1.18-.158.994.994 0 0 1-.327-.304.92.92 0 0 1-.12-.581 1.298 1.298 0 0 1 .796-1.045h.03c.044.008.09.008.134 0 .235-.063.478-.095.721-.094a.556.556 0 0 1 .413.179c.054.092.096.19.124.293.103.285.147.588.13.89zM77.144 60.953c.371.234.8.358 1.238.358.237.002.473-.037.697-.114a1.99 1.99 0 0 0 1.307-1.492 2.88 2.88 0 0 0-.154-1.308 1.776 1.776 0 0 0-.258-.572 1.448 1.448 0 0 0-1.08-.542 3.48 3.48 0 0 0-.959.115l-.095.03a.558.558 0 0 0-.198.034 2.173 2.173 0 0 0-1.358 1.785 1.8 1.8 0 0 0 .254 1.15c.159.227.366.417.606.556zm.836-2.645h.025a.548.548 0 0 0 .129 0 2.6 2.6 0 0 1 .701-.095.528.528 0 0 1 .388.17c.053.088.093.183.12.283.105.282.148.584.124.885a1.066 1.066 0 0 1-.692.78 1.367 1.367 0 0 1-1.138-.149.995.995 0 0 1-.309-.293.876.876 0 0 1-.114-.557 1.253 1.253 0 0 1 .766-1.04v.016zM79.337 69.526a1.67 1.67 0 0 0-1.253-.626 4.126 4.126 0 0 0-1.163.14.456.456 0 0 0-.115.044.497.497 0 0 0-.229.025 2.606 2.606 0 0 0-1.616 2.123c-.052.474.055.951.304 1.357.183.28.426.514.71.687a2.8 2.8 0 0 0 1.492.427c.282.002.56-.045.826-.139a2.342 2.342 0 0 0 1.541-1.795 3.45 3.45 0 0 0-.189-1.566 2.165 2.165 0 0 0-.308-.677zm-.427 2.094a1.427 1.427 0 0 1-.93 1.064 1.81 1.81 0 0 1-1.492-.204 1.297 1.297 0 0 1-.423-.393 1.208 1.208 0 0 1-.154-.766 1.661 1.661 0 0 1 1.02-1.337l.05-.025a.43.43 0 0 0 .158 0 3.18 3.18 0 0 1 .9-.12.755.755 0 0 1 .562.25c.075.12.13.253.164.392.131.364.18.754.14 1.139h.005zM70.049 62.404a1.705 1.705 0 0 0 1.72-1.402 2.417 2.417 0 0 0-.124-1.109 1.567 1.567 0 0 0-.229-.497 1.264 1.264 0 0 0-.945-.497 2.751 2.751 0 0 0-.81.094l-.075.025a.411.411 0 0 0-.174.03 1.87 1.87 0 0 0-1.164 1.531c-.042.347.035.698.22.995.134.203.312.372.521.497.315.208.682.323 1.06.333zm-.299-2.456h.11c.177-.052.362-.077.547-.075a.344.344 0 0 1 .253.1.794.794 0 0 1 .085.209c.08.217.113.45.1.68a.776.776 0 0 1-.498.578 1.024 1.024 0 0 1-.85-.12.675.675 0 0 1-.23-.209.657.657 0 0 1-.079-.402.92.92 0 0 1 .562-.761z"></path><path d="M104.39 47.19c.313-1.018.56-2.054.74-3.104a.468.468 0 0 0-.14-.422.497.497 0 0 0-.432-.11c-.888.224-1.762.503-2.615.836a.467.467 0 0 0-.15.06c-6.961 2.73-13.048 9.03-15.703 16.384a49.458 49.458 0 0 0-2.208-13.033 14.102 14.102 0 0 0 4.476-8.006c.557-3.164.241-6.42-.915-9.418-.15-.413-.319-.816-.498-1.238a.497.497 0 0 0-.303-.264h-.264a.496.496 0 0 0-.154.08c-1.73 1.462-2.83 3.69-3.48 7.001-.766 3.978-1.284 7.613.178 11.83a51.93 51.93 0 0 1 1.124 4.217 40.103 40.103 0 0 0-1.989-3.64c-1.65-2.695-3.272-4.605-5.117-6.012a11.397 11.397 0 0 0-7.19-2.486h-.333a.497.497 0 0 0-.433.393c-.258 1.7.617 3.326 1.492 4.694a44.667 44.667 0 0 0 4.445 5.738c2.313 2.531 6.336 5.276 9.821 5.47.293 2.26.437 4.538.433 6.817 0 1.701-.09 3.446-.174 5.137-.065 1.402-.134 2.82-.16 4.242a15.151 15.151 0 0 0-2.44-3.929 19.177 19.177 0 0 0-6.246-4.694.47.47 0 1 0-.408.846 18.19 18.19 0 0 1 5.942 4.475 13.675 13.675 0 0 1 3.227 7.031 25.28 25.28 0 0 0 .995 5.828.497.497 0 0 0 .448.333.445.445 0 0 0 .139 0 .466.466 0 0 0 .308-.586 24.433 24.433 0 0 1-.965-5.63 70.775 70.775 0 0 1 .09-7.821c.08-1.621.159-3.292.169-4.938.535.312 1.146.47 1.765.457a7.32 7.32 0 0 0 3.083-.815 25.997 25.997 0 0 0 13.426-15.669l.015-.055zm-.886-.304c-6.494 9.284-12.009 12.79-14.918 14.087 3.63-3.157 10.751-9.602 15.226-15.206-.109.378-.199.751-.308 1.12zM88.218 60.063c2.715-3.674 8.32-10.73 14.008-14.788.368-.14.736-.279 1.11-.403-4.317 5.5-11.378 11.93-15.118 15.191zm10.134-12.859c-4.261 3.824-8.145 8.648-10.442 11.71a28.041 28.041 0 0 1 10.442-11.71zm-10.94-7.583a13.524 13.524 0 0 1-2.72 5.967 37.697 37.697 0 0 0 2.487-12.884c.575 2.262.656 4.621.239 6.917h-.005zm-3.35 4.973c.484-4.09 1.203-8.15 2.152-12.158a37.098 37.098 0 0 1-2.148 12.168l-.005-.01zm-.419-8.454c.278-1.824.941-3.568 1.945-5.117A111.69 111.69 0 0 0 83.1 44.768c-.447-2.93-.02-5.684.547-8.633l-.005.005zm-2.381 12.705c.497.776.92 1.577 1.337 2.382C80 47.99 75.986 43.51 71.903 40.97c1.63.367 3.158 1.09 4.475 2.118 1.746 1.353 3.297 3.182 4.884 5.758zm2.337 5.217c-4.476-2.735-9.831-9.23-12.248-12.333 5.003 3.138 10.055 9.414 12.248 12.347v-.014zm-7.956-4.023a44.144 44.144 0 0 1-4.352-5.62 8.077 8.077 0 0 1-1.347-2.983c1.989 2.61 8.175 10.477 13.381 13.555-2.844-.73-5.838-2.909-7.697-4.937l.015-.015zM90.56 62.003c-.915.437-2.486.994-3.645.552 1.547-.358 7.534-2.327 15.266-12.322a24.987 24.987 0 0 1-11.61 11.785l-.01-.015z"></path></g></svg>