<svg xmlns="http://www.w3.org/2000/svg" width="170" height="110"><g fill="#DB572E"><path d="M32.98 74.4c.399.02.782.158 1.102.397.358.276.643.636.828 1.049l.713 1.484-4.175 2.016-.718-1.484a2.825 2.825 0 0 1-.307-1.303c.008-.395.135-.779.364-1.1.247-.341.577-.613.958-.791a2.442 2.442 0 0 1 1.235-.268zm.36 1.005a1.685 1.685 0 0 0-1.993.958 1.6 1.6 0 0 0 .144 1.216l.282.58 2.706-1.303-.283-.58a1.59 1.59 0 0 0-.857-.87zM28.412 69.75l1.159-.316-.436-1.585.685-.187.435 1.585 1.202-.33-.478-1.772.713-.196.733 2.667-4.458 1.226-.733-2.667.709-.197.469 1.772zM30.006 59.786c.219.105.402.271.527.479.154.25.244.535.263.828.032.3.002.603-.086.89a1.48 1.48 0 0 1-.416.666c-.2.176-.446.292-.709.336l-.096-.958a.723.723 0 0 0 .57-.525.699.699 0 0 0 .014-.28.618.618 0 0 0-.196-.426.555.555 0 0 0-.412-.115.527.527 0 0 0-.344.158.992.992 0 0 0-.197.34c-.043.13-.09.312-.143.541-.053.25-.125.495-.216.733-.08.196-.204.37-.364.508a1.198 1.198 0 0 1-.68.258 1.151 1.151 0 0 1-.982-.335 1.772 1.772 0 0 1-.45-1.101 1.81 1.81 0 0 1 .24-1.202 1.33 1.33 0 0 1 .89-.584l.101.99a.733.733 0 0 0-.393.25.661.661 0 0 0-.115.479c.01.15.073.29.178.397a.48.48 0 0 0 .402.12.508.508 0 0 0 .325-.153.929.929 0 0 0 .187-.33 4.1 4.1 0 0 0 .144-.527c.059-.254.134-.504.225-.748.076-.2.201-.377.364-.517.2-.159.444-.25.699-.263.228-.032.46 0 .67.091zM26.013 54.077l4.63.24-.048.923-4.63-.24.048-.923zM27.703 45.487c.345-.31.792-.48 1.255-.479l-.21.958a1.102 1.102 0 0 0-.585.316 1.436 1.436 0 0 0-.307 1.384c.077.23.22.431.412.58.217.173.474.29.747.34a1.565 1.565 0 0 0 1.193-.135 1.436 1.436 0 0 0 .627-.957 1.288 1.288 0 0 0-.105-.9 1.34 1.34 0 0 0-.704-.628l-.336 1.532-.646-.143.503-2.27.871.191a2.107 2.107 0 0 1 1.192 1.422c.082.358.082.73 0 1.088a2.394 2.394 0 0 1-.55 1.11c-.265.294-.61.505-.991.609a2.59 2.59 0 0 1-1.26 0 2.667 2.667 0 0 1-1.135-.541 2.092 2.092 0 0 1-.641-.958 2.351 2.351 0 0 1-.039-1.24 2.28 2.28 0 0 1 .71-1.279zM34.987 37.988l-.374.848-3.725.622 2.873 1.274-.379.848-4.237-1.878.373-.847 3.75-.608-2.907-1.303.378-.847 4.248 1.891zM38.98 31.547l-1.082.106c.041.061.08.125.115.191.12.183.175.4.158.618a1.226 1.226 0 0 1-.244.67c-.149.223-.351.405-.59.527a1.221 1.221 0 0 1-.703.13 1.488 1.488 0 0 1-.7-.269 1.6 1.6 0 0 1-.478-.531 1.168 1.168 0 0 1-.144-.613c.012-.21.078-.413.192-.59h-.14c-.14.006-.28-.007-.416-.038a1.304 1.304 0 0 1-.373-.172 1.026 1.026 0 0 1-.422-1.015c.038-.24.133-.467.278-.661.17-.275.428-.482.733-.589.261-.074.54-.055.79.053.137.04.266.103.383.186l.096.077-.48.704a1.15 1.15 0 0 0-.186-.115.537.537 0 0 0-.378-.1.478.478 0 0 0-.302.21.416.416 0 0 0-.03.48.388.388 0 0 0 .111.114.55.55 0 0 0 .25.1c.112.012.226.012.34 0l3.782-.23-.56.757zm-1.561.656a.614.614 0 0 0-.263-.407.63.63 0 0 0-.513-.1.67.67 0 0 0-.436.292.597.597 0 0 0-.022.715c.048.07.112.13.185.175a.621.621 0 0 0 .508.115.656.656 0 0 0 .421-.287.633.633 0 0 0 .12-.503zM43.098 24.015c.264.033.509.155.694.345a1.154 1.154 0 0 1 .364.958 1.648 1.648 0 0 1-.57 1.034l-1.436 1.394-3.247-3.31 1.394-1.364c.256-.289.605-.479.986-.536a1.053 1.053 0 0 1 .877.354c.187.175.306.41.335.666.021.236-.04.473-.173.67.225-.161.5-.236.776-.21zm-2.16 1.14.6-.584a.814.814 0 0 0 .267-.479.546.546 0 0 0-.182-.44.562.562 0 0 0-.44-.197.795.795 0 0 0-.48.268l-.583.575.818.857zm2.28.254a.579.579 0 0 0-.192-.479.592.592 0 0 0-.479-.201.862.862 0 0 0-.522.282l-.627.608.896.91.627-.613a.876.876 0 0 0 .297-.498v-.01zM49.994 21.234l-1.916-.886-.335.23 1.015 1.494-.776.507-2.605-3.83 1.461-.992a1.733 1.733 0 0 1 1.24-.364 1.475 1.475 0 0 1 1.188 1.514c-.04.328-.193.632-.431.861l1.997.886-.838.58zm-2.61-1.183.632-.431c.44-.297.527-.637.263-1.025a.686.686 0 0 0-.455-.325.843.843 0 0 0-.603.182l-.627.43.79 1.169zM56.698 16.65l-1.705.743.072.986-.896.393-.268-4.89.958-.42 3.395 3.524-.9.392-.656-.727zm-.479-.545-1.437-1.523.158 2.069 1.279-.546zM66.006 14.917l-.905.196-2.7-2.633.675 3.079-.905.196-.991-4.53.905-.196 2.705 2.662-.68-3.107.905-.197.991 4.53zM74.166 13.203a2.001 2.001 0 0 1-.819.838c-.4.21-.845.32-1.297.316l-1.648.038-.095-4.64 1.647-.034c.451-.02.901.07 1.312.259.357.172.654.447.852.79.208.37.316.787.316 1.212.018.423-.074.844-.268 1.22zm-1.063-.087a1.705 1.705 0 0 0-.043-2.217 1.628 1.628 0 0 0-1.168-.368h-.642l.062 3.002h.642a1.6 1.6 0 0 0 1.15-.417zM80.348 10.228l-.642 4.593-.919-.125.646-4.597.915.13zM87.823 16.832l-.881-.273-1.034-3.62-.958 3.012-.886-.273 1.374-4.429.886.273 1.04 3.654.957-3.036.886.273-1.384 4.42zM97.084 16.53c.192.418.221.893.081 1.331l-.847-.478a1.12 1.12 0 0 0-.144-.652 1.35 1.35 0 0 0-.531-.478 1.331 1.331 0 0 0-.71-.178 1.27 1.27 0 0 0-.674.23 1.743 1.743 0 0 0-.532.618 1.59 1.59 0 0 0-.206 1.187 1.438 1.438 0 0 0 .742.872c.271.156.59.209.896.148a1.37 1.37 0 0 0 .8-.478l-1.38-.757.321-.584 2.055 1.13-.427.78c-.205.24-.46.43-.747.56-.3.137-.628.201-.957.187a2.365 2.365 0 0 1-1.044-.306 2.442 2.442 0 0 1-.915-.843 2.035 2.035 0 0 1-.306-1.12 2.787 2.787 0 0 1 1.178-2.15 2.093 2.093 0 0 1 1.106-.345c.421-.006.836.101 1.202.311.446.218.81.574 1.039 1.015zM88.201 56.098c0 5.529-1.558 9.382-4.673 11.56-2.873 2.01-6.82 3.018-11.842 3.02H60.289v-.765h2.658V43.23h-2.658v-.766h12.45c5.156 0 9.022 1.055 11.598 3.165 2.576 2.11 3.864 5.6 3.864 10.468zM70.8 69.913h1.532c2.71 0 4.65-.958 5.818-2.874 1.169-1.915 1.753-5.131 1.753-9.648v-2.337c0-6.037-1.154-9.675-3.462-10.913-1.102-.59-2.66-.886-4.674-.886h-.958l-.01 26.658z"></path><path d="M143.906 59.086a6.555 6.555 0 0 0-1.173-2.806 7.227 7.227 0 0 0-1.791-1.61 10.982 10.982 0 0 0-5.995-1.78h-.115c-1.076.009-2.143.185-3.165.521a5.921 5.921 0 0 0-.604.259c-.2.11-.411.195-.632.254a1.596 1.596 0 0 1-.651-.086 4.221 4.221 0 0 0-.555-.115 5.27 5.27 0 0 0-1.868.1 5.306 5.306 0 0 0-3.007 1.916.929.929 0 0 0-.216.65.89.89 0 0 0 .24.508c3.16 3.774 3.994 7.106 2.69 10.77a30.809 30.809 0 0 1-14.552 7.757 41.126 41.126 0 0 0 3.831-13.408c.195-1.774.247-3.561.158-5.344a.506.506 0 0 0 .053-.095c.479-3.807 2.638-7.279 4.463-9.88a29.33 29.33 0 0 1 5.229-5.923 13.13 13.13 0 0 1 7.006-3.074c.555-.052 1.317-.12 1.733-.747.243-.414.319-.906.21-1.374-.373-2.581-2.135-5.014-4.826-6.675a36.353 36.353 0 0 0-3.352-1.791 13.724 13.724 0 0 0-1.594-.608 7.411 7.411 0 0 1-2.395-1.14c-4.008-3.227-9.261-4.415-13.724-3.098-4.889 1.436-8.547 6.115-8.51 10.865v.311c.04.443-.001.89-.124 1.317a3.566 3.566 0 0 1-.957 1.168l-.33.316a8.366 8.366 0 0 0-2.428 6.226c-.003.524.14 1.04.411 1.489.642.958 1.882 1.039 2.787 1.106a20.111 20.111 0 0 1 8.112 2.418 19.154 19.154 0 0 1 4.822 3.697c1.365 1.465 2.02 2.945 2.322 5.22a.595.595 0 0 0 0 .129 32.56 32.56 0 0 1-.143 5.348 41.454 41.454 0 0 1-10.243 22.837c.661-1.509 1.092-3.194.55-5.066a13.945 13.945 0 0 0 2.917-8.423c0-1.35-.215-5.914-2.92-7.92a4.132 4.132 0 0 0-1.964-.652 3.15 3.15 0 0 1-1.485-.479c-1.719-1.273-4.53-2.164-6.795-.479a6.023 6.023 0 0 0-2.054 3.012 8.547 8.547 0 0 0-.311 2.155 5.922 5.922 0 0 1-.402 2.213 3.018 3.018 0 0 1-.618.723c-.28.245-.527.525-.737.833a4.678 4.678 0 0 0-.762 2.514s.115 1.843.623 2.212a.637.637 0 0 0 .54.086c4.435-1.436 10.057-.646 12.542 3.563 1.173 2.394.335 4.415-.714 6.417a13.025 13.025 0 0 1-3.012 3.73c-.335.278-.675.555-1.02.823-.21.158-.42.312-.646.48a.433.433 0 0 0-.09.095 43.097 43.097 0 0 1-25.471 8.62h-.843a42.44 42.44 0 0 1-31.695-15.28.546.546 0 0 0-.78-.073.556.556 0 0 0-.072.78 43.542 43.542 0 0 0 32.528 15.683h.857a44.26 44.26 0 0 0 26.883-9.39c.378-.283.737-.575 1.077-.872a41.874 41.874 0 0 0 3.606-3.351 43.767 43.767 0 0 0 7.13-9.98 31.947 31.947 0 0 0 15.803-8.078 8.055 8.055 0 0 1 6.383 1.374c2.059 1.48 3.49 4.31 4.166 5.833a.518.518 0 0 0 .349.311.481.481 0 0 0 .158 0c.109.001.216-.03.307-.09a5.905 5.905 0 0 0 2.432-3.453 7.89 7.89 0 0 0 .086-2.615 6.466 6.466 0 0 1 .1-2.452 8.39 8.39 0 0 1 .858-1.728c.338-.537.626-1.103.862-1.69a9.529 9.529 0 0 0 .517-5.014zm-42.196-23.91c.18-.562.248-1.154.2-1.742v-.297c0-.23 0-.48.025-.69a9.099 9.099 0 0 1 3.174 2.035.187.187 0 1 0 .269-.253 9.525 9.525 0 0 0-3.4-2.165c.119-.96.385-1.894.79-2.772a33.442 33.442 0 0 1 11.492 16.654c-2.873-4.66-7.906-8.318-12.613-10.626.005-.048.063-.09.063-.143zm31.039-2.623a12.184 12.184 0 0 1-3.76 3.328.18.18 0 0 0-.094.207.18.18 0 0 0 .18.137.186.186 0 0 0 .087 0 12.469 12.469 0 0 0 3.807-3.318c.582.864.97 1.844 1.135 2.873a1.08 1.08 0 0 1-.033.599c-.125.186-.561.225-.915.258a14.228 14.228 0 0 0-7.604 3.319 26.206 26.206 0 0 0-4.176 4.415 48.342 48.342 0 0 1 9.735-13.514 9.5 9.5 0 0 1 1.633 1.696h.005zm-6.225-4.42.407.196a12.314 12.314 0 0 1-1.796 5.018.184.184 0 0 0 .001.204c.014.02.031.037.052.05.029.022.064.034.1.034a.191.191 0 0 0 .159-.082 12.596 12.596 0 0 0 1.838-5.052c.958.48 1.79.93 2.49 1.365.225.14.436.288.647.436a49.06 49.06 0 0 0-10.535 14.873 110.233 110.233 0 0 0 4.491-17.842l.69.24c.499.157.989.344 1.466.56h-.01zm-3.137-1.245c-1.173 6.938-2.844 13.987-5.41 20.59a72.987 72.987 0 0 0-.082-23.76c.828.302 1.629.673 2.394 1.11.463 1.718.55 3.514.254 5.268a.186.186 0 0 0 .143.22h.039a.182.182 0 0 0 .182-.148 12.388 12.388 0 0 0-.168-5.08c.556.338 1.089.714 1.595 1.125.326.26.68.487 1.053.675zM112.6 22.856a12.58 12.58 0 0 1 2.217 5.066.187.187 0 0 0 .186.153h.03a.192.192 0 0 0 .152-.215 12.59 12.59 0 0 0-2.135-5.014c1.229 0 2.452.16 3.639.48a72.566 72.566 0 0 1 .096 24.9c0-8.572-1.375-18.79-7.312-24.848l.143-.048c.972-.277 1.974-.43 2.984-.455v-.02zm-7.47 3.108a12.45 12.45 0 0 1 3.83 3.912.181.181 0 0 0 .163.096.182.182 0 0 0 .158-.278 12.579 12.579 0 0 0-3.83-3.989 11.043 11.043 0 0 1 3.03-1.944c5.522 5.631 7.073 14.94 7.231 23.11a33.745 33.745 0 0 0-12.45-18.465 11.049 11.049 0 0 1 1.868-2.423v-.02zm-4.961 11.066.31-.297c.239-.215.464-.444.676-.685 5.703 2.873 11.866 7.772 13.796 14.026-3.127-5.632-10.296-8.96-16.487-10.286.23-.654.553-1.271.958-1.834a9.3 9.3 0 0 1 3.73 1.733.187.187 0 0 0 .263 0 .188.188 0 0 0-.029-.263 9.5 9.5 0 0 0-3.73-1.776c.16-.208.332-.408.513-.599v-.02zm8.619 9.495a21.184 21.184 0 0 0-8.562-2.552c-.757-.057-1.609-.12-1.949-.622a1.853 1.853 0 0 1-.225-.92c-.03-.7.045-1.4.225-2.078 5.952 1.437 12.594 4.688 15.568 10.056a20.24 20.24 0 0 0-5.043-3.864l-.014-.02zM93.526 69.611c.157-.328.27-.676.335-1.034a9.17 9.17 0 0 1 3.592 1.01c.03.007.06.007.09 0a.185.185 0 0 0 .163-.091.192.192 0 0 0-.072-.254 9.4 9.4 0 0 0-3.701-1.049c.053-.397.086-.8.11-1.197 3.922 1.12 8.59 3.563 10.248 7.332-2.285-3.137-6.867-4.463-10.842-4.607l.077-.11zm11.373-5.373c2.289 1.695 2.47 5.809 2.47 7.025a12.705 12.705 0 0 1-.612 3.83c.038-3.93-1.284-7.896-3.261-11.286.496.025.978.173 1.403.431zm-6.33-2.274a9.152 9.152 0 0 1 2.767 2.49.191.191 0 0 0 .153.081.186.186 0 0 0 .153-.292 8.91 8.91 0 0 0-2.092-2.078 6.346 6.346 0 0 1 1.915.957c.184.13.381.24.59.326a23.143 23.143 0 0 1 3.61 10.726 21.314 21.314 0 0 0-5.354-9.51c-.608-.613-1.915-2.025-3.045-2.624a3.93 3.93 0 0 1 1.302-.081v.005zm-2.606.675c.094-.069.192-.133.292-.192 1.044.604 2.624 2.18 3.204 2.778a19.934 19.934 0 0 1 3.946 5.97c-2.438-2.518-6.163-4.189-9.3-5.003.027-.369.095-.733.201-1.087.103-.297.226-.587.37-.867a9.126 9.126 0 0 1 3.164 1.916.187.187 0 0 0 .203.037.187.187 0 0 0 .06-.3 9.252 9.252 0 0 0-3.25-1.964c.28-.5.657-.938 1.11-1.288zm-3.83 8.643a3.8 3.8 0 0 1 .57-.627l.282-.283c4.2.153 9.18 1.729 11.013 5.526-2.873-3.385-7.776-4.367-12.292-3.64a3.98 3.98 0 0 1 .426-.976zm3.648 2.437a14.618 14.618 0 0 0-4.056.58 10.959 10.959 0 0 1-.177-1.102c0-.114 0-.225.024-.34 3.831-.598 7.858.125 10.564 2.581a11.847 11.847 0 0 0-6.36-1.719h.005zm45.793-8.466c-.153.254-.301.513-.445.78a12.09 12.09 0 0 1-4.722.757.167.167 0 0 0-.196.173.175.175 0 0 0 .009.072c.007.023.02.044.036.062a.178.178 0 0 0 .127.062h.637a12.622 12.622 0 0 0 3.869-.66 5.698 5.698 0 0 0-.272.703 6.022 6.022 0 0 0-.202 2.203 17.797 17.797 0 0 0-10.367-2.193l.268-.115a45.055 45.055 0 0 0 12.034-3.352 9.507 9.507 0 0 1-.781 1.508h.005zm1.245-5.966c.055.317.09.636.106.958a12.376 12.376 0 0 1-4.31 2.844.175.175 0 0 0-.104.094.186.186 0 0 0 .06.23.182.182 0 0 0 .106.035.147.147 0 0 0 .062 0 12.335 12.335 0 0 0 4.19-2.667 8.923 8.923 0 0 1-.402 2.437 43.273 43.273 0 0 1-10.9 3.3c4.057-2.021 7.735-5.028 10.953-8.14.1.296.178.6.234.909h.005zm-2.351-3.596a12.246 12.246 0 0 1-2.998 4.17.176.176 0 0 0-.04.06.17.17 0 0 0-.013.07.17.17 0 0 0 .014.07.177.177 0 0 0 .039.06.195.195 0 0 0 .144.066.172.172 0 0 0 .12-.048 12.47 12.47 0 0 0 3.064-4.228c.403.297.764.646 1.073 1.04.148.202.279.417.393.64-3.414 3.353-7.427 6.772-11.871 8.802 3.658-3.007 6.388-7.374 8.404-11.617a9.266 9.266 0 0 1 1.556.819l.115.096zM134.85 54h.21a12.442 12.442 0 0 1-1.206 5.477.196.196 0 0 0 .082.254.276.276 0 0 0 .086 0 .189.189 0 0 0 .163-.1 12.696 12.696 0 0 0 1.249-5.641c.824.037 1.64.178 2.428.421-1.681 3.577-3.86 7.264-6.704 10.118 1.68-3.055 2.074-6.838 1.585-10.295a9.58 9.58 0 0 1 2.102-.235h.005zm-5.368.914c.368.119.757.153 1.14.1a3.64 3.64 0 0 0 .91-.344c.043 0 .086-.034.129-.058.546 3.984-.077 8.505-2.624 11.646 1.614-3.548.958-7.892-.551-11.454.195-.015.39-.015.584 0 .14.026.278.063.412.11zm-4.176 1.389a4.199 4.199 0 0 1 2.06-1.322c1.192 2.749 1.862 5.971 1.369 8.935-.13-2.509-1.26-4.999-3.414-7.613h-.015zm15.084 16.036a4.786 4.786 0 0 1-1.436 2.395c-.9-1.916-2.303-4.253-4.238-5.646a9.27 9.27 0 0 0-2.926-1.408 15.928 15.928 0 0 1 8.706 2.83c.069.61.038 1.229-.091 1.83h-.015zM80.233 29.067H65.015v1.48h15.218v-1.48z"></path><path d="M80.233 84.092H65.015v1.48h15.218v-1.48z"></path></g></svg>